<svg width="480" height="380" viewBox="0 0 480 380" fill="none" xmlns="http://www.w3.org/2000/svg">
<path d="M470.071 379.128L478.023 132.392C478.233 126.367 476.088 120.51 472.048 116.086L373.759 7.59123C368.71 2.02955 361.305 -0.75129 353.858 0.175657L73.4648 33.8828C65.0917 34.894 57.9389 40.3714 54.7832 48.1662L1.8519 178.739C0.547553 181.941 0.000564256 185.354 0.210943 188.767L11.1086 379.128H470.071Z" fill="#F4F4F4"/>
<path d="M209.032 27.4362V192.433C209.032 194.539 210.758 196.267 212.861 196.267H451.431C453.535 196.267 455.26 194.539 455.26 192.433V27.4362C455.26 25.3295 453.535 23.6021 451.431 23.6021H212.861C210.715 23.6021 209.032 25.3295 209.032 27.4362Z" fill="#3B82F6"/>
<path opacity="0.3" d="M209.032 27.4362V192.433C209.032 194.539 210.758 196.267 212.861 196.267H451.431C453.535 196.267 455.26 194.539 455.26 192.433V27.4362C455.26 25.3295 453.535 23.6021 451.431 23.6021H212.861C210.715 23.6021 209.032 25.3295 209.032 27.4362Z" fill="white"/>
<path d="M206.129 27.4362V192.433C206.129 194.539 207.854 196.267 209.958 196.267H448.528C450.631 196.267 452.356 194.539 452.356 192.433V27.4362C452.356 25.3295 450.631 23.6021 448.528 23.6021H209.958C207.854 23.6021 206.129 25.3295 206.129 27.4362Z" fill="#3B82F6"/>
<path opacity="0.7" d="M206.129 27.4362V192.433C206.129 194.539 207.854 196.267 209.958 196.267H448.528C450.631 196.267 452.356 194.539 452.356 192.433V27.4362C452.356 25.3295 450.631 23.6021 448.528 23.6021H209.958C207.854 23.6021 206.129 25.3295 206.129 27.4362Z" fill="white"/>
<path d="M215.259 34.1778C216.564 34.1778 217.658 33.0823 217.658 31.7761C217.658 30.47 216.564 29.3745 215.259 29.3745C213.955 29.3745 212.861 30.47 212.861 31.7761C212.861 33.0823 213.955 34.1778 215.259 34.1778Z" fill="#3B82F6"/>
<path d="M223.843 34.1778C225.147 34.1778 226.241 33.0823 226.241 31.7761C226.241 30.47 225.147 29.3745 223.843 29.3745C222.539 29.3745 221.445 30.47 221.445 31.7761C221.445 33.0823 222.539 34.1778 223.843 34.1778Z" fill="#61656D"/>
<path d="M232.385 34.1778C233.689 34.1778 234.783 33.0823 234.783 31.7761C234.783 30.47 233.689 29.3745 232.385 29.3745C231.08 29.3745 229.986 30.47 229.986 31.7761C229.986 33.0823 231.08 34.1778 232.385 34.1778Z" fill="#21252B"/>
<path d="M414.32 60.3851H281.36C280.435 60.3851 279.719 59.6267 279.719 58.7419V50.9049C279.719 49.978 280.477 49.2617 281.36 49.2617H414.32C415.245 49.2617 415.961 50.0201 415.961 50.9049V58.7419C416.003 59.6688 415.245 60.3851 414.32 60.3851Z" fill="#3B82F6"/>
<path opacity="0.5" d="M414.32 60.3851H281.36C280.435 60.3851 279.719 59.6267 279.719 58.7419V50.9049C279.719 49.978 280.477 49.2617 281.36 49.2617H414.32C415.245 49.2617 415.961 50.0201 415.961 50.9049V58.7419C416.003 59.6688 415.245 60.3851 414.32 60.3851Z" fill="white"/>
<path d="M410.618 53.2645C409.818 52.4639 408.472 52.4639 407.63 53.2645C406.789 54.1071 406.789 55.4133 407.63 56.256C408.388 57.0144 409.566 57.0565 410.365 56.4245L411.543 57.6043L411.964 57.1829L410.786 56.0032C411.417 55.2026 411.375 54.0229 410.618 53.2645ZM410.239 55.8346C409.65 56.4245 408.682 56.4245 408.051 55.8346C407.462 55.2448 407.462 54.2757 408.051 53.6858C408.64 53.0959 409.608 53.0959 410.197 53.6858C410.828 54.2757 410.828 55.2448 410.239 55.8346Z" fill="#3B82F6"/>
<path d="M435.61 53.0117H429.383V53.6437H435.61V53.0117Z" fill="#3B82F6"/>
<path d="M435.61 55.2026H429.383V55.8346H435.61V55.2026Z" fill="#3B82F6"/>
<path d="M435.61 57.3936H429.383V58.0256H435.61V57.3936Z" fill="#3B82F6"/>
<path d="M285.568 180.256H225.358C224.011 180.256 222.875 179.161 222.875 177.77V74.753C222.875 73.4047 223.969 72.2671 225.358 72.2671H285.61C286.957 72.2671 288.093 73.3626 288.093 74.753V177.813C288.051 179.161 286.957 180.256 285.568 180.256Z" fill="white"/>
<path d="M255.442 118.783C265.792 118.783 274.208 110.356 274.208 99.991C274.208 89.626 265.792 81.1992 255.442 81.1992C245.091 81.1992 236.676 89.626 236.676 99.991C236.676 110.356 245.091 118.783 255.442 118.783Z" fill="#3B82F6"/>
<path opacity="0.3" d="M255.442 118.783C265.792 118.783 274.208 110.356 274.208 99.991C274.208 89.626 265.792 81.1992 255.442 81.1992C245.091 81.1992 236.676 89.626 236.676 99.991C236.676 110.356 245.091 118.783 255.442 118.783Z" fill="white"/>
<path d="M259.439 106.817L249.888 106.69L246.943 107.491C247.658 109.513 248.794 113.011 249.846 117.94C251.613 118.488 253.506 118.783 255.442 118.783C257.756 118.783 259.986 118.362 262.048 117.603C261.333 112.589 260.828 108.881 260.743 107.196L259.439 106.817Z" fill="white"/>
<path opacity="0.3" d="M259.439 106.817L249.888 106.69L246.943 107.491C247.658 109.513 248.794 113.011 249.846 117.94C251.613 118.488 253.506 118.783 255.442 118.783C257.756 118.783 259.986 118.362 262.048 117.603C261.333 112.589 260.828 108.881 260.743 107.196L259.439 106.817Z" fill="white"/>
<path d="M259.355 95.4408C259.355 95.4408 250.898 90.1319 250.603 96.6205L250.477 98.3059L249.888 106.817C249.888 107.07 249.972 107.28 250.099 107.449L254.979 110.778C255.148 110.862 255.316 110.862 255.442 110.735L259.061 107.617C259.313 107.407 259.439 107.07 259.397 106.775L258.85 101.719C258.934 101.255 259.019 100.792 259.019 100.202C259.103 97.7581 259.355 95.4408 259.355 95.4408Z" fill="#FC9D9D"/>
<path d="M260.07 95.8621C261.669 95.8621 262.932 94.598 262.932 92.9969C262.932 91.3958 261.669 90.1318 260.07 90.1318C258.471 90.1318 257.209 91.3958 257.209 92.9969C257.209 94.598 258.471 95.8621 260.07 95.8621Z" fill="#21252B"/>
<path d="M260.281 90.8902C260.281 90.8902 263.268 103.488 256.831 104.331C251.235 105.089 250.604 96.3676 250.604 96.3676L250.856 90.7217L260.281 90.8902Z" fill="#FC9D9D"/>
<path d="M259.902 91.6906L254.18 92.112C253.465 92.1541 252.918 92.7861 253.002 93.5024C253.044 94.2187 252.539 94.8507 251.824 94.8928C251.613 94.8928 251.487 95.0614 251.487 95.272L251.571 96.536C251.571 96.7046 251.445 96.831 251.319 96.831C251.192 96.831 251.024 96.7467 251.024 96.6203L250.772 95.4406L250.519 95.0614L249.173 95.904C249.173 95.904 246.985 92.5333 248.037 89.4997C248.626 87.7722 250.351 87.1402 251.192 87.0138C251.445 86.9716 251.697 86.8452 251.824 86.5924C252.16 86.0447 252.96 85.0335 254.769 85.1177C256.157 85.1599 256.915 85.9183 257.293 86.5082C257.546 86.8874 258.009 87.0138 258.387 86.8452C258.976 86.5924 259.818 86.4239 260.786 87.0138C262.637 88.1093 261.88 91.3536 259.902 91.6906Z" fill="#21252B"/>
<path opacity="0.15" d="M250.435 98.7273C250.435 98.7273 250.982 98.7694 251.277 98.5166L250.351 99.907L250.435 98.7273Z" fill="black"/>
<path d="M250.73 95.3982C250.73 95.3982 250.309 94.2184 249.089 94.7662C247.7 95.3982 247.953 98.6004 250.351 98.7689C251.613 98.8532 251.361 98.1369 251.15 97.1678C250.73 95.3982 250.73 95.3982 250.73 95.3982Z" fill="#FC9D9D"/>
<path opacity="0.3" d="M249.004 95.567C249.257 95.3985 249.467 95.3564 249.678 95.3985C249.888 95.4406 250.056 95.6092 250.225 95.8198C250.393 96.0726 250.435 96.3676 250.477 96.7047L250.519 96.9996C250.519 97.0839 250.477 97.1681 250.393 97.1681C250.309 97.1681 250.225 97.126 250.225 97.0417L250.183 96.7468C250.183 96.6625 250.141 96.2412 249.972 96.0305C249.846 95.862 249.762 95.7356 249.636 95.7356C249.509 95.6934 249.341 95.7356 249.173 95.862C249.089 95.9041 249.004 95.9041 248.962 95.8198C248.92 95.6934 248.962 95.6092 249.004 95.567Z" fill="black"/>
<path d="M259.944 91.9432L259.271 92.0274C259.187 92.0274 259.145 91.9853 259.145 91.901C259.145 91.8168 259.187 91.7746 259.271 91.7746L259.944 91.6904C260.028 91.6904 260.113 91.6482 260.197 91.6482C260.365 91.6061 260.66 91.4376 260.912 91.2269C260.954 91.1848 261.08 91.1848 261.122 91.269C261.164 91.3112 261.164 91.3954 261.08 91.4376C260.744 91.6904 260.449 91.8589 260.281 91.901C260.155 91.9432 260.07 91.9432 259.944 91.9432Z" fill="#FC9D9D"/>
<path opacity="0.15" d="M259.271 105.342L259.061 103.32C258.514 103.867 256.957 104.668 255.232 104.289C254.138 103.994 253.423 103.404 252.96 102.898C252.918 102.856 252.834 102.856 252.792 102.898C252.749 102.94 252.749 103.025 252.792 103.067C253.339 103.699 254.306 104.457 255.779 104.668C257.546 105.848 259.271 105.342 259.271 105.342Z" fill="black"/>
<path opacity="0.3" d="M257.293 101.76C256.746 101.803 256.494 101.845 256.494 101.845C256.41 101.845 256.325 101.76 256.325 101.676C256.325 101.592 256.41 101.508 256.494 101.508C256.494 101.508 256.746 101.508 257.251 101.423C257.335 101.423 257.419 101.465 257.419 101.592C257.461 101.676 257.377 101.76 257.293 101.76Z" fill="black"/>
<path opacity="0.3" d="M257.588 101.002C256.157 101.213 255.526 100.454 255.316 100.075C255.274 99.991 255.316 99.9068 255.358 99.8646C255.442 99.8225 255.526 99.8646 255.568 99.9068C255.779 100.286 256.494 101.087 258.177 100.539C258.261 100.497 258.345 100.539 258.387 100.623C258.429 100.707 258.387 100.792 258.303 100.834C258.051 100.918 257.798 101.002 257.588 101.002Z" fill="black"/>
<path d="M255.652 97.2944C255.947 97.2944 256.157 97.0837 256.157 96.7888C256.157 96.4939 255.947 96.2832 255.652 96.2832C255.358 96.2832 255.148 96.4939 255.148 96.7888C255.148 97.0837 255.358 97.2944 255.652 97.2944Z" fill="#21252B"/>
<path d="M255.863 96.7469C255.947 96.7469 255.99 96.7048 255.99 96.6205C255.99 96.5363 255.947 96.4941 255.863 96.4941C255.779 96.4941 255.737 96.5363 255.737 96.6205C255.737 96.7048 255.779 96.7469 255.863 96.7469Z" fill="white"/>
<path d="M259.733 97.2944C260.028 97.2944 260.238 97.0837 260.238 96.7888C260.238 96.4939 260.028 96.2832 259.733 96.2832C259.439 96.2832 259.229 96.4939 259.229 96.7888C259.229 97.0837 259.439 97.2944 259.733 97.2944Z" fill="#21252B"/>
<path d="M259.944 96.7469C260.029 96.7469 260.071 96.7048 260.071 96.6205C260.071 96.5363 260.029 96.4941 259.944 96.4941C259.86 96.4941 259.818 96.5363 259.818 96.6205C259.818 96.7048 259.86 96.7469 259.944 96.7469Z" fill="white"/>
<path opacity="0.3" d="M257.967 99.7382L257.294 99.7803C257.21 99.7803 257.125 99.7382 257.125 99.6539C257.125 99.5697 257.167 99.4854 257.252 99.4854L257.925 99.4433C258.093 99.4433 258.219 99.2747 258.219 99.1062C258.219 98.9376 258.051 98.8113 257.883 98.8113C257.799 98.8113 257.714 98.7691 257.714 98.6848C257.714 98.6006 257.757 98.5163 257.841 98.5163C258.177 98.4742 258.472 98.727 258.514 99.0641C258.556 99.4433 258.303 99.7382 257.967 99.7382Z" fill="black"/>
<path d="M261.207 95.4409H258.935H258.64H256.663H254.138C253.717 95.4409 253.381 95.778 253.381 96.1993V96.7892C253.381 97.9268 254.306 98.8116 255.4 98.8116C256.536 98.8116 257.42 97.8847 257.42 96.7892V96.1993C257.42 96.0308 257.378 95.8622 257.252 95.7358H258.051C257.967 95.8622 257.883 96.0308 257.883 96.1993V96.7892C257.883 97.9268 258.808 98.8116 259.902 98.8116C261.038 98.8116 261.922 97.8847 261.922 96.7892V96.1993C261.964 95.778 261.627 95.4409 261.207 95.4409ZM257.125 96.1993V96.7892C257.125 97.7583 256.368 98.5167 255.4 98.5167C254.433 98.5167 253.675 97.7583 253.675 96.7892V96.1993C253.675 95.9465 253.886 95.7358 254.138 95.7358H256.663C256.915 95.7358 257.125 95.9465 257.125 96.1993ZM261.67 96.7471C261.67 97.7162 260.912 98.4746 259.944 98.4746C258.977 98.4746 258.219 97.7162 258.219 96.7471V96.1572C258.219 95.9044 258.43 95.6937 258.682 95.6937H258.977H261.249C261.501 95.6937 261.712 95.9044 261.712 96.1572L261.67 96.7471Z" fill="#21252B"/>
<g opacity="0.15">
<path opacity="0.15" d="M266.845 150.509H249.257C249.173 150.509 249.089 150.425 249.089 150.341C249.089 150.257 249.173 150.172 249.257 150.172H266.845C266.929 150.172 267.013 150.257 267.013 150.341C267.013 150.425 266.929 150.509 266.845 150.509Z" fill="black"/>
</g>
<g opacity="0.15">
<path opacity="0.15" d="M264.067 110.272H256.073L255.484 110.778C255.358 110.904 255.147 110.904 254.979 110.82L254.179 110.272H245.386V111.199H264.067V110.272Z" fill="#3B82F6"/>
<path opacity="0.15" d="M264.109 114.19H245.386V115.117H264.109V114.19Z" fill="#3B82F6"/>
<path opacity="0.15" d="M264.109 133.825H245.386V134.752H264.109V133.825Z" fill="black"/>
<path opacity="0.15" d="M265.666 141.662H245.386V142.589H265.666V141.662Z" fill="black"/>
</g>
<path d="M239.032 109.092C241.725 113.937 246.438 117.434 252.076 118.488C251.108 112.884 250.056 108.755 249.425 106.859L239.032 109.092Z" fill="#21252B"/>
<path d="M270.295 111.451C269.454 110.44 268.444 109.724 267.392 109.387L260.029 107.027C260.113 108.544 260.449 112.547 260.996 117.94C264.741 116.802 267.981 114.485 270.295 111.451Z" fill="#21252B"/>
<path d="M270.295 111.451C269.454 110.44 268.444 109.724 267.392 109.387L260.029 107.027C260.113 108.544 260.449 112.547 260.996 117.94C264.741 116.802 267.981 114.485 270.295 111.451Z" fill="#21252B"/>
<path d="M280.729 172.714H263.142C262.679 172.714 262.3 172.335 262.3 171.871V167.489C262.3 167.026 262.679 166.646 263.142 166.646H280.729C281.192 166.646 281.571 167.026 281.571 167.489V171.871C281.571 172.377 281.192 172.714 280.729 172.714Z" fill="#3B82F6"/>
<path d="M276.017 170.355H267.855C267.518 170.355 267.224 170.06 267.224 169.723C267.224 169.386 267.518 169.091 267.855 169.091H276.017C276.354 169.091 276.648 169.386 276.648 169.723C276.648 170.06 276.354 170.355 276.017 170.355Z" fill="white"/>
<path d="M231.459 167.911L231.88 168.796C231.922 168.838 231.964 168.88 232.048 168.922L233.016 169.049C233.184 169.091 233.226 169.259 233.142 169.386L232.427 170.06C232.385 170.102 232.343 170.186 232.385 170.228L232.553 171.198C232.595 171.366 232.427 171.492 232.259 171.408L231.375 170.945C231.333 170.903 231.249 170.903 231.207 170.945L230.323 171.408C230.197 171.492 230.029 171.366 230.029 171.198L230.197 170.228C230.197 170.144 230.197 170.102 230.155 170.06L229.44 169.386C229.313 169.259 229.397 169.091 229.566 169.049L230.534 168.922C230.618 168.922 230.66 168.88 230.702 168.796L231.123 167.911C231.165 167.743 231.375 167.743 231.459 167.911Z" fill="#3B82F6"/>
<path d="M236.382 167.911L236.803 168.796C236.845 168.838 236.887 168.88 236.971 168.922L237.939 169.049C238.107 169.091 238.149 169.259 238.065 169.386L237.35 170.06C237.307 170.102 237.265 170.186 237.307 170.228L237.476 171.198C237.518 171.366 237.35 171.492 237.181 171.408L236.298 170.945C236.256 170.903 236.171 170.903 236.129 170.945L235.246 171.408C235.12 171.492 234.951 171.366 234.951 171.198L235.12 170.228C235.12 170.144 235.12 170.102 235.077 170.06L234.362 169.386C234.236 169.259 234.32 169.091 234.488 169.049L235.456 168.922C235.54 168.922 235.582 168.88 235.624 168.796L236.045 167.911C236.087 167.743 236.298 167.743 236.382 167.911Z" fill="#3B82F6"/>
<path d="M241.304 167.911L241.725 168.796C241.767 168.838 241.809 168.88 241.893 168.922L242.861 169.049C243.029 169.091 243.071 169.259 242.987 169.386L242.272 170.06C242.23 170.102 242.188 170.186 242.23 170.228L242.398 171.198C242.44 171.366 242.272 171.492 242.104 171.408L241.22 170.945C241.178 170.903 241.094 170.903 241.052 170.945L240.168 171.408C240.042 171.492 239.874 171.366 239.874 171.198L240.042 170.228C240.042 170.144 240.042 170.102 240 170.06L239.285 169.386C239.158 169.259 239.243 169.091 239.411 169.049L240.379 168.922C240.463 168.922 240.505 168.88 240.547 168.796L240.968 167.911C241.01 167.743 241.22 167.743 241.304 167.911Z" fill="#3B82F6"/>
<path d="M246.228 167.911L246.648 168.796C246.69 168.838 246.733 168.88 246.817 168.922L247.784 169.049C247.953 169.091 247.995 169.259 247.911 169.386L247.195 170.06C247.153 170.102 247.111 170.186 247.153 170.228L247.322 171.198C247.364 171.366 247.195 171.492 247.027 171.408L246.143 170.945C246.101 170.903 246.017 170.903 245.975 170.945L245.092 171.408C244.965 171.492 244.797 171.366 244.797 171.198L244.965 170.228C244.965 170.144 244.965 170.102 244.923 170.06L244.208 169.386C244.082 169.259 244.166 169.091 244.334 169.049L245.302 168.922C245.386 168.922 245.428 168.88 245.47 168.796L245.891 167.911C245.933 167.743 246.143 167.743 246.228 167.911Z" fill="#3B82F6"/>
<path d="M251.15 167.911L251.571 168.796C251.613 168.838 251.655 168.88 251.739 168.922L252.707 169.049C252.875 169.091 252.917 169.259 252.833 169.386L252.118 170.06C252.076 170.102 252.034 170.186 252.076 170.228L252.244 171.198C252.286 171.366 252.118 171.492 251.95 171.408L251.066 170.945C251.024 170.903 250.94 170.903 250.898 170.945L250.014 171.408C249.888 171.492 249.72 171.366 249.72 171.198L249.888 170.228C249.888 170.144 249.888 170.102 249.846 170.06L249.13 169.386C249.004 169.259 249.088 169.091 249.257 169.049L250.224 168.922C250.309 168.922 250.351 168.88 250.393 168.796L250.814 167.911C250.856 167.743 251.066 167.743 251.15 167.911Z" fill="#B1B5BA"/>
<path d="M274.797 134.92H235.624C235.33 134.92 235.077 134.667 235.077 134.372V132.56C235.077 132.266 235.33 132.013 235.624 132.013H274.797C275.091 132.013 275.344 132.266 275.344 132.56V134.372C275.344 134.667 275.091 134.92 274.797 134.92Z" fill="#3F4249"/>
<path d="M277.532 142.589H233.352C232.932 142.589 232.595 142.252 232.595 141.83C232.595 141.409 232.932 141.072 233.352 141.072H277.532C277.953 141.072 278.289 141.409 278.289 141.83C278.289 142.252 277.953 142.589 277.532 142.589Z" fill="#B1B5BA"/>
<path d="M277.532 149.583H233.352C232.932 149.583 232.595 149.246 232.595 148.824C232.595 148.403 232.932 148.066 233.352 148.066H277.532C277.953 148.066 278.289 148.403 278.289 148.824C278.289 149.246 277.953 149.583 277.532 149.583Z" fill="#B1B5BA"/>
<path d="M267.602 156.577H243.324C242.904 156.577 242.567 156.24 242.567 155.818C242.567 155.397 242.904 155.06 243.324 155.06H267.602C268.023 155.06 268.359 155.397 268.359 155.818C268.359 156.24 268.023 156.577 267.602 156.577Z" fill="#B1B5BA"/>
<path opacity="0.7" d="M215.975 128.895C217.406 128.895 218.584 127.715 218.584 126.283C218.584 124.85 217.406 123.67 215.975 123.67C214.545 123.67 213.366 124.85 213.366 126.283C213.366 127.715 214.545 128.895 215.975 128.895Z" fill="white"/>
<path d="M216.269 127.547L216.69 127.125L215.807 126.283L216.69 125.398L216.269 124.977L214.965 126.283L216.269 127.547Z" fill="#3B82F6"/>
<path opacity="0.7" d="M442.931 128.895C444.362 128.895 445.54 127.715 445.54 126.283C445.54 124.85 444.362 123.67 442.931 123.67C441.501 123.67 440.323 124.85 440.323 126.283C440.323 127.715 441.501 128.895 442.931 128.895Z" fill="white"/>
<path d="M442.637 127.547L442.216 127.125L443.1 126.283L442.216 125.398L442.637 124.977L443.941 126.283L442.637 127.547Z" fill="#3B82F6"/>
<path d="M255.358 58.7416H224.474C223.591 58.7416 222.875 58.0253 222.875 57.1405V52.5479C222.875 51.663 223.591 50.9468 224.474 50.9468H255.358C256.241 50.9468 256.957 51.663 256.957 52.5479V57.1405C256.957 58.0253 256.241 58.7416 255.358 58.7416Z" fill="#3B82F6"/>
<path d="M359.369 180.256H299.116C297.77 180.256 296.634 179.161 296.634 177.77V74.753C296.634 73.4047 297.728 72.2671 299.116 72.2671H359.369C360.715 72.2671 361.851 73.3626 361.851 74.753V177.813C361.809 179.161 360.715 180.256 359.369 180.256Z" fill="white"/>
<path d="M348.556 134.92H309.383C309.089 134.92 308.836 134.667 308.836 134.372V132.56C308.836 132.266 309.089 132.013 309.383 132.013H348.556C348.85 132.013 349.103 132.266 349.103 132.56V134.372C349.103 134.667 348.85 134.92 348.556 134.92Z" fill="#3F4249"/>
<path d="M351.291 142.589H307.111C306.69 142.589 306.354 142.252 306.354 141.83C306.354 141.409 306.69 141.072 307.111 141.072H351.291C351.711 141.072 352.048 141.409 352.048 141.83C352.09 142.252 351.754 142.589 351.291 142.589Z" fill="#B1B5BA"/>
<path d="M351.291 149.583H307.111C306.69 149.583 306.354 149.246 306.354 148.824C306.354 148.403 306.69 148.066 307.111 148.066H351.291C351.711 148.066 352.048 148.403 352.048 148.824C352.09 149.246 351.754 149.583 351.291 149.583Z" fill="#B1B5BA"/>
<path d="M341.361 156.577H317.083C316.662 156.577 316.326 156.24 316.326 155.818C316.326 155.397 316.662 155.06 317.083 155.06H341.361C341.781 155.06 342.118 155.397 342.118 155.818C342.16 156.24 341.781 156.577 341.361 156.577Z" fill="#B1B5BA"/>
<path d="M329.243 118.783C339.593 118.783 348.009 110.356 348.009 99.991C348.009 89.626 339.593 81.1992 329.243 81.1992C318.892 81.1992 310.477 89.626 310.477 99.991C310.477 110.356 318.892 118.783 329.243 118.783Z" fill="#B1B5BA"/>
<path d="M335.302 109.008L325.035 108.923L323.226 109.303L316.115 110.693C315.484 110.861 314.895 111.114 314.39 111.451C317.84 115.918 323.184 118.783 329.243 118.783C331.431 118.783 333.535 118.403 335.512 117.687C335.849 113.853 336.228 111.156 336.648 109.387L335.302 109.008Z" fill="#3B82F6"/>
<path d="M331.683 103.53C331.978 100.117 329.411 97.126 325.877 96.7889C322.384 96.4939 319.313 98.9799 319.018 102.393C318.724 105.806 321.333 108.797 324.825 109.134C328.275 109.429 331.389 106.901 331.683 103.53Z" fill="#21252B"/>
<path d="M332.483 88.7833C333.661 87.1822 333.367 84.9491 331.768 83.7693C330.169 82.5896 327.939 82.8845 326.761 84.4856C325.583 86.0867 325.877 88.3198 327.476 89.4995C329.075 90.6793 331.305 90.3843 332.483 88.7833Z" fill="#21252B"/>
<path d="M326.172 87.5612C326.424 88.5725 327.097 89.4151 328.107 89.9207C329.874 90.7634 332.02 89.9629 332.862 88.1933C332.904 88.0668 332.946 87.9405 332.988 87.8562C331.599 86.9292 328.57 86.1708 326.172 87.5612Z" fill="#3B82F6"/>
<path d="M332.693 103.067C332.525 106.901 331.851 109.007 333.955 109.092C337.363 109.26 340.267 106.269 340.435 102.392C340.603 98.5582 337.952 95.3139 334.544 95.1875C333.661 98.4739 332.861 99.2324 332.693 103.067Z" fill="#21252B"/>
<path d="M324.194 109.092L324.825 109.598C327.812 112.126 332.23 112.084 335.176 109.555L335.68 109.134L333.913 108.671C333.535 108.586 333.282 108.249 333.24 107.87L332.525 98.4321L326.634 99.5697L326.045 107.997C326.003 108.376 325.751 108.713 325.372 108.797L324.194 109.092Z" fill="#FC9D9D"/>
<path d="M329.79 105.847C327.476 105.847 325.582 104.036 325.456 101.718L324.909 92.7017L334.839 92.7859L334.166 101.803C333.998 104.12 332.104 105.89 329.79 105.847Z" fill="#FC9D9D"/>
<path d="M329.79 105.847C327.476 105.847 325.582 104.036 325.456 101.718L324.909 92.7017L334.839 92.7859L334.166 101.803C333.998 104.12 332.104 105.89 329.79 105.847Z" fill="#FC9D9D"/>
<path d="M327.854 99.1484C328.149 99.1484 328.359 98.9378 328.359 98.6428C328.359 98.3479 328.149 98.1372 327.854 98.1372C327.56 98.1372 327.349 98.3479 327.349 98.6428C327.349 98.9378 327.56 99.1484 327.854 99.1484Z" fill="#21252B"/>
<path d="M327.644 98.6005C327.728 98.6005 327.771 98.5583 327.771 98.4741C327.771 98.3898 327.728 98.3477 327.644 98.3477C327.56 98.3477 327.518 98.3898 327.518 98.4741C327.518 98.5583 327.56 98.6005 327.644 98.6005Z" fill="white"/>
<path d="M331.894 98.1372C332.188 98.1372 332.398 98.3479 332.398 98.6428C332.398 98.9378 332.188 99.1484 331.894 99.1484C331.599 99.1484 331.389 98.9378 331.389 98.6428C331.389 98.3479 331.599 98.1372 331.894 98.1372Z" fill="#21252B"/>
<path d="M331.641 98.6005C331.726 98.6005 331.768 98.5583 331.768 98.4741C331.768 98.3898 331.726 98.3477 331.641 98.3477C331.557 98.3477 331.515 98.3898 331.515 98.4741C331.515 98.5583 331.557 98.6005 331.641 98.6005Z" fill="white"/>
<g opacity="0.3">
<path opacity="0.3" d="M329.916 101.55H329.453C329.369 101.55 329.285 101.466 329.285 101.382C329.285 101.297 329.369 101.213 329.453 101.213H329.916C330.084 101.213 330.253 101.087 330.253 100.918C330.253 100.75 330.126 100.581 329.958 100.581C329.874 100.581 329.79 100.497 329.79 100.413C329.79 100.328 329.874 100.244 329.958 100.244C330.295 100.244 330.589 100.539 330.589 100.876C330.547 101.297 330.253 101.55 329.916 101.55Z" fill="black"/>
</g>
<path d="M321.543 98.0531C322.3 97.5053 322.006 96.4941 322.006 96.4941C321.88 96.0728 321.795 95.6093 321.753 95.1037C321.711 93.9661 322.258 93.2077 322.595 92.8284C322.763 92.6178 322.889 92.365 322.889 92.1122C323.352 87.2246 330.505 86.1292 334.082 89.0785C336.227 90.8903 336.732 92.8706 336.564 94.7666C336.564 94.7666 336.438 95.6093 337.195 96.0306L336.269 96.4098C335.891 97.8002 335.218 98.4323 334.881 99.4435C334.124 98.9379 334.292 96.7048 334.292 96.7048C332.188 96.452 332.188 94.0082 332.188 94.0082C330.253 98.0952 325.204 97.716 325.204 97.716L324.909 98.8536C324.909 98.8536 322.931 98.4323 322.511 97.716L321.711 98.2637L321.543 98.0531Z" fill="#21252B"/>
<path d="M334.292 100.412C334.292 100.412 335.975 100.286 336.059 98.5586C336.143 96.8732 334.04 96.9154 334.04 98.6007L334.124 100.455L334.292 100.412Z" fill="#FC9D9D"/>
<path opacity="0.3" d="M334.628 98.179C334.712 97.9683 334.797 97.8419 334.965 97.7577C335.091 97.7155 335.259 97.7155 335.47 97.7998C335.512 97.8419 335.554 97.9262 335.512 97.9683C335.512 98.0105 335.47 98.0105 335.428 98.0526C335.386 98.0526 335.344 98.0526 335.344 98.0526C335.217 98.0105 335.133 97.9683 335.049 98.0105C334.965 98.0526 334.923 98.1369 334.881 98.2633C334.839 98.3897 334.797 98.6003 334.797 98.7267C334.797 98.811 334.755 98.8531 334.67 98.8531C334.586 98.8531 334.544 98.7689 334.544 98.7267C334.544 98.5582 334.586 98.3475 334.628 98.179Z" fill="black"/>
<path d="M334.797 100.075C334.923 100.075 335.05 99.9065 335.05 99.7379C335.05 99.5694 334.923 99.4009 334.797 99.4009C334.671 99.4009 334.544 99.5694 334.544 99.7379C334.502 99.9486 334.629 100.075 334.797 100.075Z" fill="#3B82F6"/>
<path opacity="0.15" d="M334.671 100.033C334.84 100.033 334.924 99.8647 334.924 99.654C334.924 99.5698 334.924 99.5276 334.882 99.4434C334.966 99.4855 335.008 99.6119 335.008 99.6962C335.008 99.8647 334.882 100.033 334.755 100.033C334.713 100.033 334.671 100.033 334.629 99.9911C334.629 100.033 334.629 100.033 334.671 100.033Z" fill="black"/>
<path d="M325.288 100.412C325.288 100.412 323.605 100.286 323.52 98.5586C323.436 96.8732 325.54 96.9154 325.54 98.6007L325.456 100.455L325.288 100.412Z" fill="#FC9D9D"/>
<path opacity="0.3" d="M324.993 98.179C324.909 97.9683 324.783 97.8419 324.657 97.7577C324.488 97.7155 324.32 97.7155 324.152 97.7998C324.11 97.8419 324.068 97.9262 324.11 97.9683C324.11 98.0105 324.152 98.0105 324.194 98.0526C324.236 98.0526 324.278 98.0526 324.278 98.0526C324.404 98.0105 324.488 97.9683 324.572 98.0105C324.657 98.0526 324.699 98.1369 324.783 98.2633C324.825 98.3897 324.867 98.6003 324.867 98.7267C324.867 98.811 324.909 98.8531 324.993 98.8531C325.077 98.8531 325.119 98.7689 325.119 98.7267C325.077 98.5582 325.035 98.3475 324.993 98.179Z" fill="black"/>
<path d="M325.12 99.654C325.12 99.4854 325.036 99.3169 324.867 99.3169C324.741 99.3169 324.615 99.4433 324.615 99.654C324.615 99.8225 324.699 99.991 324.867 99.991C324.994 99.991 325.12 99.8646 325.12 99.654Z" fill="#3B82F6"/>
<path opacity="0.15" d="M324.952 100.033C324.783 100.033 324.699 99.8647 324.699 99.654C324.699 99.5698 324.699 99.5276 324.741 99.4434C324.657 99.4855 324.615 99.6119 324.615 99.6962C324.615 99.8647 324.741 100.033 324.867 100.033C324.909 100.033 324.952 100.033 324.994 99.9911C324.994 100.033 324.952 100.033 324.952 100.033Z" fill="black"/>
<path d="M330.926 102.351C331.01 102.351 331.052 102.435 331.01 102.477C330.758 102.983 330.253 103.32 329.664 103.32C329.075 103.32 328.612 102.983 328.317 102.477C328.275 102.435 328.317 102.351 328.401 102.351H330.926Z" fill="white"/>
<path d="M332.062 97.0838C331.431 97.126 330.842 97.5052 330.505 98.0108C329.916 97.8001 329.453 97.9686 329.201 98.0529C328.78 97.4209 328.065 96.9996 327.265 97.0838C326.129 97.1681 325.288 98.2214 325.372 99.359C325.456 100.497 326.508 101.339 327.644 101.255C328.78 101.171 329.622 100.117 329.537 98.9798C329.495 98.727 329.453 98.5164 329.369 98.3057C329.579 98.2214 329.958 98.1372 330.379 98.2636C330.211 98.6006 330.126 98.9798 330.169 99.359C330.253 100.497 331.305 101.339 332.441 101.255C333.577 101.171 334.418 100.117 334.334 98.9798C334.25 97.8422 333.198 96.9574 332.062 97.0838ZM327.644 100.918C326.634 101.002 325.751 100.286 325.666 99.2748C325.582 98.2636 326.298 97.3788 327.307 97.2945C328.317 97.2102 329.201 97.9265 329.285 98.9377C329.369 99.9489 328.654 100.834 327.644 100.918ZM332.441 100.96C331.431 101.044 330.547 100.328 330.463 99.3169C330.379 98.3057 331.094 97.4209 332.104 97.3366C333.114 97.2524 333.997 97.9686 334.082 98.9798C334.166 99.9911 333.408 100.876 332.441 100.96Z" fill="white"/>
<path opacity="0.15" d="M327.981 105.848C328.57 106.1 329.159 106.185 329.706 106.185C329.916 106.185 330.127 106.185 330.295 106.143C331.263 106.606 332.693 106.395 333.198 106.227L333.072 104.415L332.819 104.668C332.483 104.963 332.104 105.216 331.683 105.426C331.347 105.553 330.674 105.805 329.832 105.848H329.79H329.748C329.243 105.848 328.696 105.763 328.149 105.553C328.065 105.511 327.981 105.553 327.939 105.637C327.855 105.721 327.897 105.805 327.981 105.848Z" fill="black"/>
<path d="M343.548 112.168C342.917 111.494 342.118 110.946 341.108 110.609L336.353 109.303C336.017 110.777 335.596 113.769 335.217 117.814C338.457 116.718 341.36 114.738 343.548 112.168Z" fill="#3B82F6"/>
<path d="M335.723 109.092L335.218 109.513C333.703 110.819 331.852 111.451 330 111.451C328.149 111.451 326.34 110.819 324.825 109.555L324.194 109.05L325.414 108.755L323.142 109.218L324.278 110.187C325.877 111.536 327.897 112.252 329.958 112.252C332.062 112.252 334.124 111.494 335.723 110.145L336.648 109.345L335.723 109.092Z" fill="#002D75"/>
<path d="M336.648 110.525C336.816 110.525 336.985 110.356 336.985 110.188C336.985 110.019 336.816 109.851 336.648 109.851C336.48 109.851 336.311 110.019 336.311 110.188C336.311 110.356 336.48 110.525 336.648 110.525Z" fill="white"/>
<path d="M332.61 115.707C332.778 115.707 332.947 115.538 332.947 115.37C332.947 115.201 332.778 115.033 332.61 115.033C332.441 115.033 332.273 115.201 332.273 115.37C332.273 115.538 332.441 115.707 332.61 115.707Z" fill="white"/>
<path d="M325.877 121.437C326.045 121.437 326.213 121.269 326.213 121.1C326.213 120.932 326.045 120.763 325.877 120.763C325.708 120.763 325.54 120.932 325.54 121.1C325.54 121.269 325.708 121.437 325.877 121.437Z" fill="white"/>
<path d="M339.173 120.258C339.341 120.258 339.509 120.089 339.509 119.921C339.509 119.752 339.341 119.583 339.173 119.583C339.004 119.583 338.836 119.752 338.836 119.921C338.836 120.089 339.004 120.258 339.173 120.258Z" fill="white"/>
<path d="M344.517 124.639C344.686 124.639 344.854 124.47 344.854 124.302C344.854 124.133 344.686 123.965 344.517 123.965C344.349 123.965 344.18 124.133 344.18 124.302C344.18 124.47 344.349 124.639 344.517 124.639Z" fill="white"/>
<path d="M342.96 114.738C343.128 114.738 343.296 114.569 343.296 114.401C343.296 114.232 343.128 114.063 342.96 114.063C342.791 114.063 342.623 114.232 342.623 114.401C342.623 114.569 342.791 114.738 342.96 114.738Z" fill="white"/>
<path d="M324.531 112.969C324.699 112.969 324.868 112.8 324.868 112.631C324.868 112.463 324.699 112.294 324.531 112.294C324.362 112.294 324.194 112.463 324.194 112.631C324.194 112.8 324.362 112.969 324.531 112.969Z" fill="white"/>
<path d="M319.061 117.434C319.23 117.434 319.398 117.266 319.398 117.097C319.398 116.929 319.23 116.76 319.061 116.76C318.893 116.76 318.724 116.929 318.724 117.097C318.724 117.266 318.893 117.434 319.061 117.434Z" fill="white"/>
<path d="M317.714 111.578C317.883 111.578 318.051 111.409 318.051 111.241C318.051 111.072 317.883 110.904 317.714 110.904C317.546 110.904 317.377 111.072 317.377 111.241C317.377 111.409 317.546 111.578 317.714 111.578Z" fill="white"/>
<path d="M311.739 118.951C311.908 118.951 312.076 118.783 312.076 118.614C312.076 118.446 311.908 118.277 311.739 118.277C311.571 118.277 311.402 118.446 311.402 118.614C311.402 118.783 311.571 118.951 311.739 118.951Z" fill="white"/>
<path d="M325.625 170.06C325.582 170.102 325.54 170.186 325.582 170.228L325.751 171.197C325.793 171.366 325.625 171.492 325.456 171.408L324.573 170.944C324.531 170.944 324.531 170.902 324.489 170.902L323.815 170.86L324.152 168.29L324.446 167.742C324.531 167.742 324.573 167.784 324.615 167.869L325.036 168.753C325.078 168.796 325.12 168.838 325.204 168.88L326.172 169.006C326.34 169.048 326.382 169.217 326.298 169.343L325.625 170.06Z" fill="#B1B5BA"/>
<path d="M304.965 167.911L305.386 168.796C305.428 168.838 305.47 168.88 305.554 168.922L306.522 169.049C306.69 169.091 306.732 169.259 306.648 169.386L305.933 170.06C305.891 170.102 305.849 170.186 305.891 170.228L306.059 171.198C306.101 171.366 305.933 171.492 305.764 171.408L304.881 170.945C304.839 170.903 304.755 170.903 304.712 170.945L303.829 171.408C303.703 171.492 303.534 171.366 303.534 171.198L303.703 170.228C303.703 170.144 303.703 170.102 303.661 170.06L302.945 169.386C302.819 169.259 302.903 169.091 303.072 169.049L304.039 168.922C304.123 168.922 304.165 168.88 304.208 168.796L304.628 167.911C304.712 167.743 304.881 167.743 304.965 167.911Z" fill="#3B82F6"/>
<path d="M309.888 167.911L310.309 168.796C310.351 168.838 310.393 168.88 310.477 168.922L311.445 169.049C311.613 169.091 311.655 169.259 311.571 169.386L310.856 170.06C310.814 170.102 310.772 170.186 310.814 170.228L310.982 171.198C311.024 171.366 310.856 171.492 310.688 171.408L309.804 170.945C309.762 170.903 309.678 170.903 309.636 170.945L308.752 171.408C308.626 171.492 308.458 171.366 308.458 171.198L308.626 170.228C308.626 170.144 308.626 170.102 308.584 170.06L307.869 169.386C307.742 169.259 307.826 169.091 307.995 169.049L308.962 168.922C309.047 168.922 309.089 168.88 309.131 168.796L309.552 167.911C309.636 167.743 309.804 167.743 309.888 167.911Z" fill="#3B82F6"/>
<path d="M314.811 167.911L315.231 168.796C315.273 168.838 315.316 168.88 315.4 168.922L316.367 169.049C316.536 169.091 316.578 169.259 316.494 169.386L315.778 170.06C315.736 170.102 315.694 170.186 315.736 170.228L315.905 171.198C315.947 171.366 315.778 171.492 315.61 171.408L314.727 170.945C314.684 170.903 314.6 170.903 314.558 170.945L313.675 171.408C313.548 171.492 313.38 171.366 313.38 171.198L313.548 170.228C313.548 170.144 313.548 170.102 313.506 170.06L312.791 169.386C312.665 169.259 312.749 169.091 312.917 169.049L313.885 168.922C313.969 168.922 314.011 168.88 314.053 168.796L314.474 167.911C314.558 167.743 314.726 167.743 314.811 167.911Z" fill="#3B82F6"/>
<path d="M319.734 167.911L320.155 168.796C320.197 168.838 320.239 168.88 320.323 168.922L321.291 169.049C321.459 169.091 321.501 169.259 321.417 169.386L320.702 170.06C320.66 170.102 320.618 170.186 320.66 170.228L320.828 171.198C320.87 171.366 320.702 171.492 320.533 171.408L319.65 170.945C319.608 170.903 319.524 170.903 319.482 170.945L318.598 171.408C318.472 171.492 318.303 171.366 318.303 171.198L318.472 170.228C318.472 170.144 318.472 170.102 318.43 170.06L317.714 169.386C317.588 169.259 317.672 169.091 317.841 169.049L318.808 168.922C318.892 168.922 318.935 168.88 318.977 168.796L319.397 167.911C319.482 167.743 319.65 167.743 319.734 167.911Z" fill="#3B82F6"/>
<path d="M324.488 167.785V170.945C324.446 170.945 324.446 170.945 324.404 170.987L323.521 171.45C323.394 171.535 323.226 171.408 323.226 171.24L323.394 170.271C323.394 170.186 323.394 170.144 323.352 170.102L322.637 169.428C322.511 169.301 322.595 169.133 322.763 169.091L323.731 168.964C323.815 168.964 323.857 168.922 323.899 168.838L324.32 167.953C324.362 167.827 324.446 167.785 324.488 167.785Z" fill="#3B82F6"/>
<path d="M354.531 172.714H336.943C336.48 172.714 336.101 172.335 336.101 171.871V167.489C336.101 167.026 336.48 166.646 336.943 166.646H354.531C354.993 166.646 355.372 167.026 355.372 167.489V171.871C355.33 172.377 354.951 172.714 354.531 172.714Z" fill="#3B82F6"/>
<path d="M349.776 170.355H341.613C341.277 170.355 340.982 170.06 340.982 169.723C340.982 169.386 341.277 169.091 341.613 169.091H349.776C350.113 169.091 350.407 169.386 350.407 169.723C350.407 170.06 350.155 170.355 349.776 170.355Z" fill="white"/>
<path d="M433.128 180.256H372.875C371.529 180.256 370.393 179.161 370.393 177.77V74.753C370.393 73.4047 371.487 72.2671 372.875 72.2671H433.128C434.474 72.2671 435.61 73.3626 435.61 74.753V177.813C435.61 179.161 434.474 180.256 433.128 180.256Z" fill="white"/>
<path d="M422.314 134.92H383.142C382.847 134.92 382.595 134.667 382.595 134.372V132.56C382.595 132.266 382.847 132.013 383.142 132.013H422.314C422.609 132.013 422.861 132.266 422.861 132.56V134.372C422.861 134.667 422.609 134.92 422.314 134.92Z" fill="#3F4249"/>
<path d="M425.092 142.589H380.912C380.491 142.589 380.155 142.252 380.155 141.83C380.155 141.409 380.491 141.072 380.912 141.072H425.092C425.512 141.072 425.849 141.409 425.849 141.83C425.849 142.252 425.512 142.589 425.092 142.589Z" fill="#B1B5BA"/>
<path d="M425.092 149.583H380.912C380.491 149.583 380.155 149.246 380.155 148.824C380.155 148.403 380.491 148.066 380.912 148.066H425.092C425.512 148.066 425.849 148.403 425.849 148.824C425.849 149.246 425.512 149.583 425.092 149.583Z" fill="#B1B5BA"/>
<path d="M415.162 156.577H390.884C390.463 156.577 390.127 156.24 390.127 155.818C390.127 155.397 390.463 155.06 390.884 155.06H415.162C415.583 155.06 415.919 155.397 415.919 155.818C415.919 156.24 415.583 156.577 415.162 156.577Z" fill="#B1B5BA"/>
<path opacity="0.3" d="M403.002 118.783C413.352 118.783 421.767 110.356 421.767 99.991C421.767 89.626 413.352 81.1992 403.002 81.1992C392.651 81.1992 384.236 89.626 384.236 99.991C384.236 110.356 392.651 118.783 403.002 118.783Z" fill="#3B82F6"/>
<path d="M397.447 95.4404C395.933 95.2719 394.881 93.9658 395.007 92.4489C395.175 90.9321 396.48 89.8788 397.994 90.0052C398.079 90.0052 398.289 89.963 398.289 90.0473C397.532 92.4068 398.036 95.4826 397.447 95.4404Z" fill="#21252B"/>
<path d="M409.103 106.48C409.103 106.606 405.905 114.148 403.422 114.316C401.234 114.485 399.72 107.533 399.72 107.364L399.804 103.699L399.762 101.803C399.635 101.339 399.131 100.96 399.089 100.37C398.836 97.7157 398.499 95.314 398.499 95.314C398.499 95.314 406.999 89.2889 407.714 96.0303L408.556 97.0836L409.103 106.48Z" fill="#966363"/>
<path d="M398.457 86.9298C398.457 86.9298 394.376 102.688 401.697 103.868C408.008 104.921 409.06 95.0195 409.06 95.0195L408.976 88.573L404.138 86.4663L398.457 86.9298Z" fill="#966363"/>
<path d="M400.267 90.9322C401.066 89.921 402.37 89.2047 403.675 89.3311C405.147 89.4575 406.284 90.6794 406.031 92.4069L405.989 92.7861C405.947 93.1653 406.199 93.5023 406.536 93.5445C407.209 93.5866 407.714 94.2186 407.672 94.8928L407.588 95.9882C407.588 96.1146 407.672 96.2411 407.84 96.2411C407.84 96.2411 408.135 96.2832 408.261 96.0304L408.471 94.8506L407.756 87.9828L402.202 86.1289L399.762 87.9828L400.267 90.9322Z" fill="#21252B"/>
<path opacity="0.15" d="M408.556 97.4632C408.556 97.4632 408.093 97.4211 407.798 96.7891L408.598 98.348L408.556 97.4632Z" fill="black"/>
<path opacity="0.15" d="M405.947 102.646C405.358 103.32 404.306 104.078 402.791 104.205C401.613 104.921 400.519 105.005 399.804 104.963V103.109L400.099 103.32C400.856 103.783 401.992 104.12 403.296 103.867C404.432 103.615 405.19 103.025 405.695 102.477C405.737 102.435 405.821 102.393 405.905 102.435C405.989 102.477 405.989 102.561 405.947 102.646Z" fill="black"/>
<path d="M403.296 95.9463C403.633 95.9463 403.885 95.6935 403.885 95.3565C403.885 95.0194 403.633 94.7666 403.296 94.7666C402.96 94.7666 402.707 95.0194 402.707 95.3565C402.707 95.6935 402.96 95.9463 403.296 95.9463Z" fill="#21252B"/>
<path d="M403.044 95.2718C403.128 95.2718 403.17 95.2297 403.17 95.1454C403.17 95.0612 403.128 95.019 403.044 95.019C402.96 95.019 402.917 95.0612 402.917 95.1454C402.917 95.2297 402.96 95.2718 403.044 95.2718Z" fill="white"/>
<path d="M399.089 96.0303C399.425 96.0303 399.678 95.7775 399.678 95.4405C399.678 95.1034 399.425 94.8506 399.089 94.8506C398.752 94.8506 398.499 95.1034 398.499 95.4405C398.499 95.7775 398.752 96.0303 399.089 96.0303Z" fill="#21252B"/>
<path d="M398.837 95.3563C398.921 95.3563 398.963 95.3142 398.963 95.2299C398.963 95.1457 398.921 95.1035 398.837 95.1035C398.752 95.1035 398.71 95.1457 398.71 95.2299C398.71 95.3142 398.752 95.3563 398.837 95.3563Z" fill="white"/>
<g opacity="0.3">
<path opacity="0.3" d="M400.646 98.4319L401.403 98.3898C401.487 98.3898 401.571 98.3055 401.571 98.2213C401.571 98.137 401.487 98.0527 401.403 98.0527L400.646 98.0949C400.435 98.0949 400.267 97.9263 400.267 97.7578C400.267 97.5471 400.435 97.3786 400.603 97.3786C400.688 97.3786 400.772 97.2943 400.772 97.21C400.772 97.1258 400.688 97.0415 400.603 97.0415C400.225 97.0415 399.93 97.3786 399.93 97.7578C399.972 98.137 400.267 98.4319 400.646 98.4319Z" fill="black"/>
</g>
<path d="M403.002 118.783C410.323 118.783 416.634 114.611 419.748 108.502C419.664 108.46 419.622 108.46 419.538 108.418C419.454 108.376 419.327 108.376 419.201 108.333L408.935 105.89L403.381 112.505L399.804 106.058L387.981 107.491H387.939C387.266 107.575 386.634 107.828 386.13 108.207C389.159 114.485 395.597 118.783 403.002 118.783Z" fill="#3F4249"/>
<path d="M410.701 90.7217C410.575 88.9942 409.776 87.6459 408.303 87.2246C407.63 87.056 406.999 87.056 406.367 87.1824C406.115 87.2246 405.905 87.056 405.863 86.8454C405.652 85.7078 404.684 84.7808 403.422 84.6965C402.538 84.6544 401.781 85.0336 401.234 85.6235C401.066 85.8342 400.771 85.8342 400.603 85.6656C400.603 85.6656 398.92 84.1488 396.564 85.455C394.965 86.2976 394.208 88.3622 395.007 90.2161C395.806 92.1121 398.163 92.7863 399.762 91.4801C400.309 91.0166 400.771 90.3004 400.94 89.2049C401.024 88.5729 401.024 87.9409 400.898 87.3931L401.655 87.4353C402.581 87.4353 404.011 87.3931 405.315 87.6038C405.273 87.6038 405.273 87.6459 405.231 87.6459L407.546 88.615C407.546 88.615 407.882 94.9772 408.303 94.893C409.944 94.6823 410.827 92.2806 410.701 90.7217Z" fill="#21252B"/>
<path d="M410.702 91.2273L405.905 91.0588C405.568 90.0476 404.685 89.4155 403.633 89.2891C402.329 89.1627 401.024 89.879 400.267 90.8481C400.099 91.1009 399.93 91.2694 399.72 91.438C398.163 92.7441 395.765 92.0278 394.965 90.174C394.166 88.3201 394.965 86.2555 396.522 85.4128C398.878 84.1488 400.561 85.6235 400.561 85.6235C400.73 85.792 401.024 85.792 401.193 85.5814C401.698 84.9493 402.497 84.6123 403.381 84.6544C404.601 84.7387 405.568 85.6235 405.821 86.8032C405.863 87.056 406.115 87.2246 406.326 87.1403C406.915 87.0139 407.588 86.9718 408.261 87.1824C409.734 87.6038 410.575 88.9521 410.66 90.6796C410.702 90.8902 410.702 91.0588 410.702 91.2273Z" fill="#21252B"/>
<path d="M398.373 92.4491L399.131 92.3227C399.215 92.3227 399.257 92.2384 399.257 92.1542C399.215 92.0699 399.173 92.0278 399.089 92.0278L398.331 92.1542C398.247 92.1963 398.163 92.1963 398.037 92.1963C397.826 92.1963 397.448 92.1542 397.069 92.0278C396.985 91.9856 396.901 92.0278 396.859 92.112C396.817 92.1963 396.859 92.2806 396.943 92.3227C397.364 92.4491 397.784 92.5334 397.953 92.5334C398.163 92.4491 398.247 92.4491 398.373 92.4491Z" fill="#966363"/>
<path d="M402.959 112.716L400.561 110.693L403.506 110.146L406.41 110.735L403.843 112.758C403.591 112.926 403.212 112.926 402.959 112.716Z" fill="white"/>
<path d="M403.507 110.145L408.387 111.156L409.818 106.058L409.65 104.668C409.608 104.457 409.439 104.331 409.271 104.331H408.976L409.061 105.679L403.507 110.145Z" fill="white"/>
<path d="M399.762 106.016V104.836H399.594C399.341 104.836 399.173 105.047 399.173 105.258L399.089 110.946L403.507 110.145L399.762 106.016Z" fill="white"/>
<g opacity="0.15">
<path opacity="0.15" d="M407.209 111.199L403.507 110.356L399.594 111.115L399.509 110.862L403.507 110.146L407.293 110.946L407.209 111.199Z" fill="black"/>
</g>
<path d="M410.701 91.2275C410.617 92.7022 409.818 94.5561 408.429 94.8931L408.219 96.0307C408.135 96.2836 407.84 96.2414 407.84 96.2414C407.714 96.2414 407.588 96.115 407.588 95.9886L407.672 94.8931C407.714 94.219 407.209 93.6291 406.536 93.5449C406.157 93.5027 405.947 93.1656 405.989 92.7864L406.031 92.4072C406.115 91.9438 406.073 91.4803 405.947 91.1011L410.701 91.2275Z" fill="#3F4249"/>
<path d="M408.471 94.261C408.471 94.261 408.808 93.1234 410.028 93.5448C411.417 94.0504 410.996 96.9155 409.06 97.4632C407.882 97.6318 408.05 96.9155 408.219 95.9885C408.471 94.2611 408.471 94.261 408.471 94.261Z" fill="#966363"/>
<path opacity="0.3" d="M410.154 94.2608C409.902 94.1344 409.733 94.1344 409.523 94.1766C409.313 94.2187 409.102 94.4294 408.976 94.6822C408.85 94.935 408.85 95.2299 408.85 95.5248V95.7777C408.85 95.8619 408.934 95.9041 409.018 95.9041C409.102 95.9041 409.144 95.8198 409.144 95.7355V95.4827C409.144 95.3985 409.144 95.0192 409.271 94.7664C409.355 94.5979 409.439 94.5136 409.607 94.4715C409.734 94.4294 409.902 94.4294 410.07 94.5136C410.112 94.5558 410.238 94.5136 410.28 94.4715C410.238 94.4715 410.323 94.3451 410.154 94.2608Z" fill="black"/>
<path d="M407.461 91.6487V91.9437L406.073 91.8594C406.073 91.8594 406.073 91.6909 406.073 91.5645L407.461 91.6487Z" fill="#21252B"/>
<path d="M407.21 92.4067L407.167 92.7017L408.346 92.7859V92.491L407.21 92.4067Z" fill="#21252B"/>
<path d="M401.866 104.078C400.435 104.12 399.257 103.025 399.215 101.592L399.173 100.37C399.131 99.3591 399.93 98.5164 400.94 98.5164L402.413 98.4742C403.422 98.4321 404.264 99.2327 404.264 100.244L404.306 101.466C404.39 102.898 403.254 104.078 401.866 104.078Z" fill="#21252B"/>
<path d="M400.351 99.612L402.918 99.5698C402.918 99.5698 402.791 100.539 401.739 100.581C400.477 100.665 400.351 99.612 400.351 99.612Z" fill="white"/>
<path d="M404.222 94.5134C404.306 94.5134 404.39 94.4291 404.432 94.3027C404.432 94.1763 404.348 94.0921 404.222 94.0921L402.875 94.0078C402.749 94.0078 402.665 94.0921 402.665 94.2185C402.665 94.3449 402.749 94.4292 402.875 94.4292L404.222 94.5134Z" fill="#21252B"/>
<path d="M398.247 94.64C398.163 94.64 398.037 94.5558 398.037 94.4294C398.037 94.303 398.121 94.2187 398.247 94.2187L399.594 94.0923C399.72 94.0923 399.804 94.1766 399.804 94.303C399.804 94.4294 399.72 94.5136 399.594 94.5136L398.247 94.64C398.29 94.64 398.29 94.64 398.247 94.64Z" fill="#21252B"/>
<path d="M378.514 167.911L378.934 168.796C378.976 168.838 379.018 168.88 379.103 168.922L380.07 169.049C380.239 169.091 380.281 169.259 380.197 169.386L379.481 170.06C379.439 170.102 379.397 170.186 379.439 170.228L379.607 171.198C379.65 171.366 379.481 171.492 379.313 171.408L378.429 170.945C378.387 170.903 378.303 170.903 378.261 170.945L377.378 171.408C377.251 171.492 377.083 171.366 377.083 171.198L377.251 170.228C377.251 170.144 377.251 170.102 377.209 170.06L376.494 169.386C376.368 169.259 376.452 169.091 376.62 169.049L377.588 168.922C377.672 168.922 377.714 168.88 377.756 168.796L378.177 167.911C378.219 167.743 378.429 167.743 378.514 167.911Z" fill="#3B82F6"/>
<path d="M383.437 167.911L383.858 168.796C383.9 168.838 383.942 168.88 384.026 168.922L384.994 169.049C385.162 169.091 385.204 169.259 385.12 169.386L384.405 170.06C384.362 170.102 384.32 170.186 384.362 170.228L384.531 171.198C384.573 171.366 384.405 171.492 384.236 171.408L383.353 170.945C383.311 170.903 383.226 170.903 383.184 170.945L382.301 171.408C382.175 171.492 382.006 171.366 382.006 171.198L382.175 170.228C382.175 170.144 382.175 170.102 382.132 170.06L381.417 169.386C381.291 169.259 381.375 169.091 381.543 169.049L382.511 168.922C382.595 168.922 382.637 168.88 382.679 168.796L383.1 167.911C383.142 167.743 383.353 167.743 383.437 167.911Z" fill="#3B82F6"/>
<path d="M388.359 167.911L388.78 168.796C388.822 168.838 388.864 168.88 388.948 168.922L389.916 169.049C390.084 169.091 390.127 169.259 390.042 169.386L389.327 170.06C389.285 170.102 389.243 170.186 389.285 170.228L389.453 171.198C389.495 171.366 389.327 171.492 389.159 171.408L388.275 170.945C388.233 170.903 388.149 170.903 388.107 170.945L387.223 171.408C387.097 171.492 386.929 171.366 386.929 171.198L387.097 170.228C387.097 170.144 387.097 170.102 387.055 170.06L386.34 169.386C386.213 169.259 386.298 169.091 386.466 169.049L387.434 168.922C387.518 168.922 387.56 168.88 387.602 168.796L388.023 167.911C388.065 167.743 388.275 167.743 388.359 167.911Z" fill="#3B82F6"/>
<path d="M393.282 167.911L393.703 168.796C393.745 168.838 393.787 168.88 393.871 168.922L394.839 169.049C395.007 169.091 395.049 169.259 394.965 169.386L394.25 170.06C394.208 170.102 394.166 170.186 394.208 170.228L394.376 171.198C394.418 171.366 394.25 171.492 394.081 171.408L393.198 170.945C393.156 170.903 393.072 170.903 393.029 170.945L392.146 171.408C392.02 171.492 391.851 171.366 391.851 171.198L392.02 170.228C392.02 170.144 392.02 170.102 391.978 170.06L391.262 169.386C391.136 169.259 391.22 169.091 391.389 169.049L392.356 168.922C392.44 168.922 392.483 168.88 392.525 168.796L392.945 167.911C392.987 167.743 393.198 167.743 393.282 167.911Z" fill="#3B82F6"/>
<path d="M398.205 167.911L398.626 168.796C398.668 168.838 398.71 168.88 398.794 168.922L399.762 169.049C399.93 169.091 399.972 169.259 399.888 169.386L399.173 170.06C399.131 170.102 399.089 170.186 399.131 170.228L399.299 171.198C399.341 171.366 399.173 171.492 399.005 171.408L398.121 170.945C398.079 170.903 397.995 170.903 397.953 170.945L397.069 171.408C396.943 171.492 396.775 171.366 396.775 171.198L396.943 170.228C396.943 170.144 396.943 170.102 396.901 170.06L396.186 169.386C396.059 169.259 396.144 169.091 396.312 169.049L397.28 168.922C397.364 168.922 397.406 168.88 397.448 168.796L397.869 167.911C397.911 167.743 398.121 167.743 398.205 167.911Z" fill="#B1B5BA"/>
<path d="M428.289 172.714H410.701C410.239 172.714 409.86 172.335 409.86 171.871V167.489C409.86 167.026 410.239 166.646 410.701 166.646H428.289C428.752 166.646 429.131 167.026 429.131 167.489V171.871C429.089 172.377 428.752 172.714 428.289 172.714Z" fill="#3B82F6"/>
<path d="M423.577 170.355H415.414C415.078 170.355 414.783 170.06 414.783 169.723C414.783 169.386 415.078 169.091 415.414 169.091H423.577C423.914 169.091 424.208 169.386 424.208 169.723C424.166 170.06 423.914 170.355 423.577 170.355Z" fill="white"/>
<path d="M148.317 245.564C148.317 247.038 149.495 248.218 150.968 248.218H368.121C369.594 248.218 370.772 247.038 370.772 245.564C370.772 244.089 369.594 242.909 368.121 242.909H151.01C149.538 242.867 148.317 244.089 148.317 245.564Z" fill="#61656D"/>
<path d="M148.317 245.564C148.317 247.038 149.495 248.218 150.968 248.218H368.121C369.594 248.218 370.772 247.038 370.772 245.564C370.772 244.089 369.594 242.909 368.121 242.909H151.01C149.538 242.867 148.317 244.089 148.317 245.564Z" fill="#61656D"/>
<path d="M127.28 245.564C127.28 247.038 128.458 248.218 129.93 248.218H327.308C328.78 248.218 329.958 247.038 329.958 245.564C329.958 244.089 328.78 242.909 327.308 242.909H129.93C128.458 242.867 127.28 244.089 127.28 245.564Z" fill="#868A91"/>
<path d="M363.409 248.218H320.071V379.128H363.409V248.218Z" fill="#61656D"/>
<path d="M320.07 248.218H314.937V379.128H320.07V248.218Z" fill="#868A91"/>
<path d="M264.194 342.936H259.061V379.129H264.194V342.936Z" fill="#868A91"/>
<path d="M314.979 248.218H259.145V365.266H314.979V248.218Z" fill="#868A91"/>
<path d="M190.898 248.218H141.459V379.128H190.898V248.218Z" fill="#61656D"/>
<path d="M141.501 248.218H136.368V379.128H141.501V248.218Z" fill="#868A91"/>
<path d="M314.937 248.218H136.325V260.311H314.937V248.218Z" fill="#868A91"/>
<path opacity="0.15" d="M320.07 248.26H315.274V248.218H314.643V248.26H136.368V248.892H314.643V365.266H315.274V248.892H320.07V248.26Z" fill="black"/>
<path opacity="0.15" d="M267.56 265.367V356.545H307.405V265.367H267.56ZM283.128 265.999C283.843 267.684 285.526 268.864 287.504 268.864C289.481 268.864 291.164 267.684 291.879 265.999H306.774V295.535H268.191V265.999H283.128ZM287.504 299.074C289.481 299.074 291.164 297.894 291.879 296.209H306.774V325.745H268.191V296.209H283.086C283.843 297.894 285.526 299.074 287.504 299.074ZM268.191 355.913V326.377H283.086C283.801 328.062 285.484 329.242 287.462 329.242C289.439 329.242 291.122 328.062 291.837 326.377H306.732V355.913H268.191Z" fill="black"/>
<path d="M119.916 77.7021H73.3386V137.069H119.916V77.7021Z" fill="white"/>
<path d="M113.689 83.6855H79.5236V131.128H113.689V83.6855Z" fill="#DDDDDD"/>
<path d="M121.263 77.7021H119.916V137.069H121.263V77.7021Z" fill="#DADDDF"/>
<path d="M90.9682 113.895C95.0495 113.895 98.3735 110.567 98.3735 106.48C98.3735 102.393 95.0495 99.064 90.9682 99.064C86.8869 99.064 83.5629 102.393 83.5629 106.48C83.5629 110.567 86.8869 113.895 90.9682 113.895Z" fill="#3B82F6"/>
<path d="M109.439 125.945L101.739 113.895L94.0396 125.819L109.439 125.945Z" fill="#868A91"/>
<path opacity="0.2" d="M108.682 88.8257H92.6934V104.837H108.682V88.8257Z" fill="black"/>
<path d="M297.097 241.94L295.456 221.126H310.267L309.005 241.94C308.963 242.488 308.5 242.909 307.953 242.909H298.149C297.602 242.867 297.139 242.488 297.097 241.94Z" fill="#B1B5BA"/>
<path d="M295.414 219.356H297.055L297.812 217.46C297.854 217.334 297.981 217.25 298.107 217.25H308.037C308.163 217.25 308.289 217.334 308.331 217.46L309.089 219.356H310.393C310.561 219.356 310.73 219.483 310.73 219.651V220.789C310.73 220.957 310.603 221.084 310.393 221.084H295.456C295.288 221.084 295.119 220.957 295.119 220.789V219.651C295.119 219.483 295.246 219.356 295.414 219.356Z" fill="#3F4249"/>
<path opacity="0.15" d="M297.223 218.977H305.428L304.797 217.25H307.995C308.121 217.25 308.247 217.334 308.289 217.46L309.047 219.356H310.351C310.519 219.356 310.688 219.483 310.688 219.651V220.789C310.688 220.957 310.561 221.084 310.351 221.084H307.7C307.49 220.452 307.195 219.609 307.195 219.609C307.153 219.44 306.943 219.314 306.775 219.314H305.596H297.097L297.223 218.977Z" fill="black"/>
<path opacity="0.2" d="M295.498 221.632L295.456 221.126H310.267L309.005 241.94C308.963 242.488 308.5 242.909 307.953 242.909H307.238L306.691 222.432L295.498 221.632Z" fill="black"/>
<path d="M307.279 230.354C307.279 228.12 305.386 226.267 303.072 226.267C300.758 226.267 298.864 228.078 298.864 230.354" fill="#3F4249"/>
<path d="M296.298 231.997H309.636L309.383 236.084H296.634L296.298 231.997Z" fill="#3F4249"/>
<path d="M429.046 317.529L408.724 339.607L408.85 298.99H408.345L408.261 318.708L391.094 301.181L390.715 301.518L408.261 319.425L408.135 356.208H408.64L408.724 340.365V340.323L429.383 317.866L429.046 317.529Z" fill="#21252B"/>
<path d="M393.072 339.522L392.735 339.902L401.655 348.328L403.086 356.25L403.591 356.165L397.911 324.438L397.448 324.523L401.529 347.486L393.072 339.522Z" fill="#21252B"/>
<path d="M399.636 379.086H412.258C414.615 379.086 416.55 377.148 416.55 374.789V358.062H395.344V374.789C395.386 377.19 397.279 379.086 399.636 379.086Z" fill="#868A91"/>
<path d="M408.598 299.032C415.877 299.032 421.81 293.091 421.81 285.802C421.81 278.513 415.877 272.572 408.598 272.572C401.319 272.572 395.386 278.513 395.386 285.802C395.386 293.091 401.319 299.032 408.598 299.032Z" fill="#3B82F6"/>
<path d="M396.732 325.787C401.95 325.787 406.157 321.574 406.157 316.349C406.157 311.125 401.95 306.911 396.732 306.911C391.515 306.911 387.307 311.125 387.307 316.349C387.307 321.574 391.515 325.787 396.732 325.787Z" fill="#3B82F6"/>
<g opacity="0.3">
<path opacity="0.3" d="M396.732 325.787C401.95 325.787 406.157 321.574 406.157 316.349C406.157 311.125 401.95 306.911 396.732 306.911C391.515 306.911 387.307 311.125 387.307 316.349C387.307 321.574 391.515 325.787 396.732 325.787Z" fill="white"/>
</g>
<g opacity="0.3">
<path opacity="0.3" d="M408.598 299.032C415.877 299.032 421.81 293.091 421.81 285.802C421.81 278.513 415.877 272.572 408.598 272.572C401.319 272.572 395.386 278.513 395.386 285.802C395.386 293.091 401.319 299.032 408.598 299.032Z" fill="white"/>
</g>
<path d="M388.359 304.383C391.473 304.383 393.997 301.855 393.997 298.737C393.997 295.619 391.473 293.091 388.359 293.091C385.246 293.091 382.721 295.619 382.721 298.737C382.721 301.855 385.246 304.383 388.359 304.383Z" fill="#3B82F6"/>
<path d="M388.191 342.05C391.894 342.05 394.881 339.059 394.881 335.351C394.881 331.643 391.894 328.652 388.191 328.652C384.488 328.652 381.501 331.643 381.501 335.351C381.501 339.059 384.488 342.05 388.191 342.05Z" fill="#3B82F6"/>
<path d="M423.998 332.022C428.71 332.022 432.539 328.188 432.539 323.469C432.539 318.75 428.71 314.916 423.998 314.916C419.285 314.916 415.456 318.75 415.456 323.469C415.456 328.188 419.285 332.022 423.998 332.022Z" fill="#3B82F6"/>
<path d="M417.013 355.828H394.923C394.292 355.828 393.787 356.334 393.787 356.966C393.787 357.598 394.292 358.103 394.923 358.103H417.055C417.686 358.103 418.191 357.598 418.191 356.966C418.149 356.334 417.644 355.828 417.013 355.828Z" fill="#868A91"/>
<path d="M395.386 285.802C395.386 278.513 401.319 272.572 408.598 272.572V299.032C401.277 299.032 395.386 293.133 395.386 285.802Z" fill="#3B82F6"/>
<path d="M398.121 325.703C393.03 326.461 388.275 323.006 387.433 317.908C386.592 312.894 389.874 308.133 394.839 307.08L398.121 325.703Z" fill="#3B82F6"/>
<path opacity="0.3" d="M384.362 302.781C382.132 300.591 382.132 297.009 384.32 294.776C384.362 294.734 384.362 294.734 384.404 294.734L392.314 302.781C390.084 304.93 386.592 304.93 384.362 302.781Z" fill="black"/>
<path opacity="0.3" d="M392.946 340.07C390.337 342.725 386.087 342.725 383.479 340.155C380.87 337.585 380.828 333.371 383.352 330.759L393.114 339.944C393.072 339.944 393.03 340.028 392.946 340.07Z" fill="black"/>
<path d="M416.55 358.061H397.279C396.648 358.061 396.143 357.556 396.143 356.924C396.143 356.292 396.648 355.786 397.279 355.786H394.923C394.292 355.786 393.787 356.292 393.787 356.924C393.787 357.556 394.292 358.061 394.923 358.061H395.386V358.398V374.789C395.386 377.148 397.321 379.086 399.678 379.086H406.41C406.494 379.086 406.536 379.086 406.536 379.086C403.548 379.086 400.982 376.98 400.393 374.03L397.363 358.441H416.592L416.55 358.061Z" fill="#61656D"/>
<path opacity="0.3" d="M429.804 317.149C429.762 317.107 429.72 317.107 429.678 317.065L418.149 329.705L418.191 329.747C421.683 332.949 427.069 332.739 430.267 329.242C433.464 325.787 433.254 320.351 429.804 317.149Z" fill="black"/>
<path d="M266.677 241.266H238.023C237.77 241.266 237.602 241.477 237.602 241.687V242.404C237.602 242.657 237.813 242.825 238.023 242.825H266.677C266.929 242.825 267.097 242.614 267.097 242.404V241.73C267.139 241.477 266.971 241.266 266.677 241.266Z" fill="#21252B"/>
<path opacity="0.6" d="M266.677 241.266H238.023C237.77 241.266 237.602 241.477 237.602 241.687V242.404C237.602 242.657 237.813 242.825 238.023 242.825H266.677C266.929 242.825 267.097 242.614 267.097 242.404V241.73C267.139 241.477 266.971 241.266 266.677 241.266Z" fill="black"/>
<path d="M247.364 241.266H197.462C197.209 241.266 197.041 241.477 197.041 241.687V242.404C197.041 242.657 197.252 242.825 197.462 242.825H247.406C247.658 242.825 247.827 242.614 247.827 242.404V241.73C247.784 241.477 247.616 241.266 247.364 241.266Z" fill="#21252B"/>
<g opacity="0.6">
<path opacity="0.6" d="M266.045 241.561H215.217C215.133 241.561 215.091 241.519 215.091 241.435C215.091 241.35 215.133 241.308 215.217 241.308H266.045C266.129 241.308 266.171 241.35 266.171 241.435C266.213 241.519 266.129 241.561 266.045 241.561Z" fill="black"/>
</g>
<path d="M259.734 241.266H267.266C267.855 241.266 268.36 240.844 268.444 240.297L274.755 207.095C274.881 206.337 274.334 205.663 273.577 205.663H266.045C265.456 205.663 264.951 206.084 264.867 206.632L258.556 239.833C258.43 240.634 258.977 241.266 259.734 241.266Z" fill="#21252B"/>
<path opacity="0.6" d="M259.734 241.266H267.266C267.855 241.266 268.36 240.844 268.444 240.297L274.755 207.095C274.881 206.337 274.334 205.663 273.577 205.663H266.045C265.456 205.663 264.951 206.084 264.867 206.632L258.556 239.833C258.43 240.634 258.977 241.266 259.734 241.266Z" fill="black"/>
<path d="M217.742 241.266H266.045C266.634 241.266 267.139 240.844 267.223 240.297L273.534 207.095C273.661 206.337 273.114 205.663 272.356 205.663H224.053C223.464 205.663 222.959 206.084 222.875 206.632L216.564 239.833C216.396 240.634 216.985 241.266 217.742 241.266Z" fill="#21252B"/>
<path d="M217.784 240.086H265.456C272.315 206.843 265.456 240.086 272.315 206.843H224.138C217.784 240.086 224.138 206.885 217.784 240.086Z" fill="white"/>
<path d="M224.138 206.843L217.827 240.086H265.246H265.625L272.483 206.843H224.138Z" fill="#3B82F6"/>
<path opacity="0.7" d="M224.138 206.843L217.827 240.086H265.246H265.625L272.483 206.843H224.138Z" fill="white"/>
<path d="M225.779 208.738C225.989 208.569 226.031 208.274 225.863 208.106C225.695 207.937 225.4 207.937 225.19 208.148C224.979 208.317 224.937 208.612 225.106 208.78C225.274 208.949 225.569 208.949 225.779 208.738Z" fill="#3B82F6"/>
<path d="M227.462 208.738C227.672 208.569 227.714 208.274 227.546 208.106C227.378 207.937 227.083 207.937 226.873 208.148C226.663 208.317 226.62 208.612 226.789 208.78C226.957 208.949 227.252 208.949 227.462 208.738Z" fill="#61656D"/>
<path d="M229.103 208.738C229.313 208.569 229.355 208.274 229.187 208.106C229.019 207.937 228.724 207.937 228.514 208.148C228.303 208.317 228.261 208.612 228.43 208.78C228.598 208.949 228.893 208.949 229.103 208.738Z" fill="#21252B"/>
<path opacity="0.2" d="M262.764 213.963H237.181C237.013 213.963 236.887 213.837 236.929 213.626L237.224 212.11C237.266 211.941 237.434 211.772 237.602 211.772H263.184C263.353 211.772 263.479 211.899 263.437 212.11L263.142 213.626C263.1 213.837 262.932 213.963 262.764 213.963Z" fill="#3B82F6"/>
<path d="M262.342 212.573C262.216 212.404 261.964 212.404 261.753 212.573C261.585 212.741 261.501 212.994 261.627 213.163C261.753 213.289 261.964 213.331 262.132 213.205L262.3 213.415L262.385 213.331L262.216 213.12C262.427 212.952 262.427 212.741 262.342 212.573ZM262.132 213.078C262.006 213.205 261.795 213.205 261.711 213.078C261.627 212.952 261.669 212.783 261.795 212.657C261.922 212.531 262.132 212.531 262.216 212.657C262.3 212.783 262.3 212.952 262.132 213.078Z" fill="#3B82F6"/>
<path d="M267.139 212.657H265.919L265.961 212.531H267.139V212.657Z" fill="#3B82F6"/>
<path d="M267.055 213.079H265.835L265.877 212.952H267.055V213.079Z" fill="#3B82F6"/>
<path d="M266.971 213.499H265.75L265.792 213.373H266.971V213.499Z" fill="#3B82F6"/>
<path d="M233.605 237.053H221.992C221.74 237.053 221.571 236.842 221.613 236.589L225.4 216.744C225.442 216.491 225.695 216.281 225.947 216.281H237.56C237.813 216.281 237.981 216.491 237.939 216.744L234.152 236.589C234.11 236.842 233.857 237.053 233.605 237.053Z" fill="white"/>
<path d="M232.931 224.033C234.53 222.559 234.867 220.283 233.647 218.935C232.427 217.587 230.112 217.713 228.513 219.188C226.915 220.663 226.578 222.938 227.798 224.286C229.018 225.592 231.333 225.508 232.931 224.033Z" fill="#3B82F6"/>
<path opacity="0.3" d="M232.931 224.033C234.53 222.559 234.867 220.283 233.647 218.935C232.427 217.587 230.112 217.713 228.513 219.188C226.915 220.663 226.578 222.938 227.798 224.286C229.018 225.592 231.333 225.508 232.931 224.033Z" fill="white"/>
<path d="M232.932 235.578H229.566C229.482 235.578 229.439 235.494 229.439 235.41L229.608 234.567C229.608 234.483 229.692 234.398 229.776 234.398H233.142C233.226 234.398 233.268 234.483 233.268 234.567L233.1 235.41C233.1 235.494 233.016 235.578 232.932 235.578Z" fill="#3B82F6"/>
<path d="M223.633 234.651L223.675 234.82C223.675 234.82 223.675 234.82 223.717 234.82L223.885 234.862C223.928 234.862 223.928 234.904 223.885 234.946L223.717 235.073V235.115V235.283C223.717 235.325 223.675 235.325 223.675 235.325L223.507 235.241H223.465L223.296 235.325C223.254 235.325 223.254 235.325 223.254 235.283L223.339 235.115V235.073L223.212 234.946C223.212 234.904 223.212 234.904 223.254 234.862L223.465 234.82H223.507L223.633 234.651C223.633 234.609 223.591 234.609 223.633 234.651Z" fill="#3B82F6"/>
<path d="M224.558 234.651L224.601 234.82C224.601 234.82 224.601 234.82 224.643 234.82L224.811 234.862C224.853 234.862 224.853 234.904 224.811 234.946L224.643 235.073V235.115V235.283C224.643 235.325 224.601 235.325 224.601 235.325L224.432 235.241H224.39L224.222 235.325C224.18 235.325 224.18 235.325 224.18 235.283L224.264 235.115V235.073L224.138 234.946C224.138 234.904 224.138 234.904 224.18 234.862L224.39 234.82H224.432L224.558 234.651C224.558 234.609 224.516 234.609 224.558 234.651Z" fill="#3B82F6"/>
<path d="M225.526 234.651L225.568 234.82C225.568 234.82 225.568 234.82 225.61 234.82L225.779 234.862C225.821 234.862 225.821 234.904 225.779 234.946L225.61 235.073V235.115V235.283C225.61 235.325 225.568 235.325 225.568 235.325L225.4 235.241H225.358L225.19 235.325C225.148 235.325 225.148 235.325 225.148 235.283L225.232 235.115V235.073L225.105 234.946C225.105 234.904 225.105 234.904 225.148 234.862L225.358 234.82H225.4L225.526 234.651C225.526 234.609 225.484 234.609 225.526 234.651Z" fill="#3B82F6"/>
<path d="M226.452 234.651L226.494 234.82C226.494 234.82 226.494 234.82 226.536 234.82L226.704 234.862C226.746 234.862 226.746 234.904 226.704 234.946L226.536 235.073V235.115V235.283C226.536 235.325 226.494 235.325 226.494 235.325L226.325 235.241H226.283L226.115 235.325C226.073 235.325 226.073 235.325 226.073 235.283L226.157 235.115V235.073L226.031 234.946C226.031 234.904 226.031 234.904 226.073 234.862L226.283 234.82H226.325L226.452 234.651C226.452 234.609 226.41 234.609 226.452 234.651Z" fill="#3B82F6"/>
<path d="M227.419 234.651L227.461 234.82C227.461 234.82 227.461 234.82 227.504 234.82L227.672 234.862C227.714 234.862 227.714 234.904 227.672 234.946L227.504 235.073V235.115V235.283C227.504 235.325 227.461 235.325 227.461 235.325L227.293 235.241H227.251L227.083 235.325C227.041 235.325 227.041 235.325 227.041 235.283L227.125 235.115V235.073L226.999 234.946C226.999 234.904 226.999 234.904 227.041 234.862L227.251 234.82H227.293L227.419 234.651C227.419 234.609 227.377 234.609 227.419 234.651Z" fill="#D9DCDE"/>
<path d="M233.184 228.289H225.653C225.611 228.289 225.569 228.247 225.569 228.205L225.653 227.867C225.653 227.825 225.737 227.783 225.779 227.783H233.311C233.353 227.783 233.395 227.825 233.395 227.867L233.311 228.205C233.311 228.247 233.226 228.289 233.184 228.289Z" fill="#3F4249"/>
<path d="M233.436 229.805H224.937C224.853 229.805 224.811 229.721 224.811 229.637C224.811 229.553 224.895 229.468 224.979 229.468H233.478C233.563 229.468 233.605 229.553 233.605 229.637C233.605 229.721 233.52 229.805 233.436 229.805Z" fill="#B1B5BA"/>
<path d="M233.184 231.112H224.685C224.601 231.112 224.558 231.028 224.558 230.943C224.558 230.859 224.643 230.775 224.727 230.775H233.226C233.31 230.775 233.352 230.859 233.352 230.943C233.31 231.07 233.268 231.112 233.184 231.112Z" fill="#B1B5BA"/>
<path d="M230.996 232.46H226.326C226.241 232.46 226.199 232.376 226.199 232.292C226.199 232.207 226.284 232.123 226.368 232.123H231.038C231.122 232.123 231.164 232.207 231.164 232.292C231.164 232.418 231.08 232.46 230.996 232.46Z" fill="#B1B5BA"/>
<path opacity="0.7" d="M222.455 226.983C222.665 226.772 222.707 226.477 222.539 226.266C222.37 226.056 222.034 226.098 221.823 226.309C221.613 226.519 221.571 226.814 221.739 227.025C221.908 227.193 222.244 227.193 222.455 226.983Z" fill="white"/>
<path d="M222.16 226.898L222.286 226.814L222.118 226.645L222.329 226.477L222.286 226.393L221.992 226.645L222.16 226.898Z" fill="#3B82F6"/>
<path opacity="0.7" d="M266.171 226.983C266.382 226.772 266.424 226.477 266.255 226.266C266.087 226.056 265.75 226.098 265.54 226.309C265.33 226.519 265.288 226.814 265.456 227.025C265.624 227.193 265.961 227.193 266.171 226.983Z" fill="white"/>
<path d="M265.751 226.898L265.709 226.814L265.919 226.645L265.751 226.477L265.877 226.393L266.046 226.645L265.751 226.898Z" fill="#3B82F6"/>
<path d="M232.216 213.626H226.283C226.115 213.626 225.989 213.5 226.031 213.331L226.199 212.446C226.241 212.278 226.41 212.151 226.578 212.151H232.511C232.679 212.151 232.805 212.278 232.763 212.446L232.595 213.331C232.553 213.5 232.384 213.626 232.216 213.626Z" fill="#3B82F6"/>
<g opacity="0.2">
<path opacity="0.2" d="M270.042 209.792H224.306L224.348 209.708H270.042V209.792Z" fill="#3B82F6"/>
</g>
<path d="M262.006 237.053H250.393C250.141 237.053 249.973 236.842 250.015 236.589L253.801 216.744C253.844 216.491 254.096 216.281 254.348 216.281H265.961C266.214 216.281 266.382 216.491 266.34 216.744L262.553 236.589C262.511 236.842 262.259 237.053 262.006 237.053Z" fill="white"/>
<path d="M261.332 235.578H257.966C257.882 235.578 257.84 235.494 257.84 235.41L258.008 234.567C258.008 234.483 258.093 234.398 258.177 234.398H261.543C261.627 234.398 261.669 234.483 261.669 234.567L261.501 235.41C261.501 235.494 261.417 235.578 261.332 235.578Z" fill="#3B82F6"/>
<path d="M261.585 228.289H254.053C254.011 228.289 253.969 228.247 253.969 228.205L254.053 227.867C254.053 227.825 254.137 227.783 254.179 227.783H261.711C261.753 227.783 261.795 227.825 261.795 227.867L261.711 228.205C261.711 228.247 261.627 228.289 261.585 228.289Z" fill="#3F4249"/>
<path d="M261.838 229.805H253.338C253.254 229.805 253.212 229.721 253.212 229.637C253.212 229.553 253.296 229.468 253.38 229.468H261.88C261.964 229.468 262.006 229.553 262.006 229.637C262.006 229.721 261.922 229.805 261.838 229.805Z" fill="#B1B5BA"/>
<path d="M261.585 231.112H253.086C253.002 231.112 252.96 231.028 252.96 230.943C252.96 230.859 253.044 230.775 253.128 230.775H261.627C261.711 230.775 261.754 230.859 261.754 230.943C261.754 231.07 261.669 231.112 261.585 231.112Z" fill="#B1B5BA"/>
<path d="M259.397 232.46H254.727C254.643 232.46 254.601 232.376 254.601 232.292C254.601 232.207 254.685 232.123 254.769 232.123H259.439C259.523 232.123 259.566 232.207 259.566 232.292C259.566 232.418 259.481 232.46 259.397 232.46Z" fill="#B1B5BA"/>
<path opacity="0.3" d="M261.333 224.033C262.932 222.559 263.268 220.283 262.048 218.935C260.828 217.587 258.514 217.713 256.915 219.188C255.316 220.663 254.979 222.938 256.199 224.286C257.42 225.592 259.734 225.508 261.333 224.033Z" fill="#3B82F6"/>
<path d="M251.95 234.651L251.992 234.82C251.992 234.82 251.992 234.82 252.034 234.82L252.202 234.862C252.244 234.862 252.244 234.904 252.202 234.946L252.034 235.073V235.115V235.283C252.034 235.325 251.992 235.325 251.992 235.325L251.823 235.241H251.781L251.613 235.325C251.571 235.325 251.571 235.325 251.571 235.283L251.655 235.115V235.073L251.529 234.946C251.529 234.904 251.529 234.904 251.571 234.862L251.781 234.82H251.823L251.95 234.651C251.908 234.609 251.866 234.609 251.95 234.651Z" fill="#3B82F6"/>
<path d="M252.875 234.651L252.917 234.82C252.917 234.82 252.917 234.82 252.959 234.82L253.128 234.862C253.17 234.862 253.17 234.904 253.128 234.946L252.959 235.073V235.115V235.283C252.959 235.325 252.917 235.325 252.917 235.325L252.749 235.241H252.707L252.539 235.325C252.497 235.325 252.497 235.325 252.497 235.283L252.581 235.115V235.073L252.454 234.946C252.454 234.904 252.454 234.904 252.497 234.862L252.707 234.82H252.749L252.875 234.651C252.875 234.609 252.833 234.609 252.875 234.651Z" fill="#3B82F6"/>
<path d="M253.843 234.651L253.885 234.82C253.885 234.82 253.885 234.82 253.927 234.82L254.095 234.862C254.137 234.862 254.137 234.904 254.095 234.946L253.927 235.073V235.115V235.283C253.927 235.325 253.885 235.325 253.885 235.325L253.717 235.241H253.675L253.506 235.325C253.464 235.325 253.464 235.325 253.464 235.283L253.548 235.115V235.073L253.422 234.946C253.422 234.904 253.422 234.904 253.464 234.862L253.675 234.82H253.717L253.843 234.651C253.801 234.609 253.801 234.609 253.843 234.651Z" fill="#3B82F6"/>
<path d="M254.769 234.651L254.811 234.82C254.811 234.82 254.811 234.82 254.853 234.82L255.021 234.862C255.064 234.862 255.064 234.904 255.021 234.946L254.853 235.073V235.115V235.283C254.853 235.325 254.811 235.325 254.811 235.325L254.643 235.241H254.601L254.432 235.325C254.39 235.325 254.39 235.325 254.39 235.283L254.474 235.115V235.073L254.348 234.946C254.348 234.904 254.348 234.904 254.39 234.862L254.601 234.82H254.643L254.769 234.651C254.769 234.609 254.727 234.609 254.769 234.651Z" fill="#3B82F6"/>
<path d="M255.737 234.651L255.779 234.82C255.779 234.82 255.779 234.82 255.821 234.82L255.989 234.862C256.031 234.862 256.031 234.904 255.989 234.946L255.821 235.073V235.115V235.283C255.821 235.325 255.779 235.325 255.779 235.325L255.611 235.241H255.568L255.4 235.325C255.358 235.325 255.358 235.325 255.358 235.283L255.442 235.115V235.073L255.316 234.946C255.316 234.904 255.316 234.904 255.358 234.862L255.568 234.82H255.611L255.737 234.651C255.737 234.609 255.695 234.609 255.737 234.651Z" fill="#D9DCDE"/>
<path d="M247.784 237.053H236.171C235.919 237.053 235.75 236.842 235.792 236.589L239.579 216.744C239.621 216.491 239.874 216.281 240.126 216.281H251.739C251.992 216.281 252.16 216.491 252.118 216.744L248.331 236.589C248.289 236.842 248.036 237.053 247.784 237.053Z" fill="white"/>
<path d="M247.153 235.578H243.787C243.703 235.578 243.661 235.494 243.661 235.41L243.829 234.567C243.829 234.483 243.913 234.398 243.997 234.398H247.364C247.448 234.398 247.49 234.483 247.49 234.567L247.321 235.41C247.321 235.494 247.237 235.578 247.153 235.578Z" fill="#3B82F6"/>
<path d="M247.363 228.289H239.832C239.79 228.289 239.748 228.247 239.748 228.205L239.832 227.867C239.832 227.825 239.916 227.783 239.958 227.783H247.49C247.532 227.783 247.574 227.825 247.574 227.867L247.49 228.205C247.49 228.247 247.448 228.289 247.363 228.289Z" fill="#3F4249"/>
<path d="M247.616 229.805H239.117C239.033 229.805 238.991 229.721 238.991 229.637C238.991 229.553 239.075 229.468 239.159 229.468H247.658C247.742 229.468 247.785 229.553 247.785 229.637C247.785 229.721 247.7 229.805 247.616 229.805Z" fill="#B1B5BA"/>
<path d="M247.363 231.112H238.864C238.78 231.112 238.738 231.028 238.738 230.943C238.738 230.859 238.822 230.775 238.906 230.775H247.405C247.489 230.775 247.532 230.859 247.532 230.943C247.532 231.07 247.447 231.112 247.363 231.112Z" fill="#B1B5BA"/>
<path d="M245.217 232.46H240.547C240.463 232.46 240.421 232.376 240.421 232.292C240.421 232.207 240.505 232.123 240.589 232.123H245.259C245.344 232.123 245.386 232.207 245.386 232.292C245.344 232.418 245.302 232.46 245.217 232.46Z" fill="#B1B5BA"/>
<path d="M247.111 224.033C248.71 222.559 249.047 220.283 247.827 218.935C246.606 217.587 244.292 217.713 242.693 219.188C241.094 220.663 240.758 222.938 241.978 224.286C243.198 225.592 245.512 225.508 247.111 224.033Z" fill="#B1B5BA"/>
<path d="M241.684 235.073C241.684 235.073 241.642 235.073 241.684 235.073V235.283C241.684 235.326 241.642 235.325 241.642 235.325L241.473 235.241L241.347 235.199L241.558 234.693L241.6 234.651H241.642L241.684 234.82C241.684 234.82 241.684 234.82 241.726 234.82L241.895 234.862C241.937 234.862 241.937 234.904 241.895 234.946L241.684 235.073Z" fill="#D9DCDE"/>
<path d="M237.771 234.651L237.813 234.82C237.813 234.82 237.813 234.82 237.855 234.82L238.023 234.862C238.065 234.862 238.065 234.904 238.023 234.946L237.855 235.073V235.115V235.283C237.855 235.325 237.813 235.325 237.813 235.325L237.644 235.241H237.602L237.434 235.325C237.392 235.325 237.392 235.325 237.392 235.283L237.476 235.115V235.073L237.35 234.946C237.35 234.904 237.35 234.904 237.392 234.862L237.602 234.82H237.644L237.771 234.651C237.771 234.609 237.729 234.609 237.771 234.651Z" fill="#3B82F6"/>
<path d="M238.738 234.651L238.78 234.82C238.78 234.82 238.78 234.82 238.823 234.82L238.991 234.862C239.033 234.862 239.033 234.904 238.991 234.946L238.823 235.073V235.115V235.283C238.823 235.325 238.78 235.325 238.78 235.325L238.612 235.241H238.57L238.402 235.325C238.36 235.325 238.36 235.325 238.36 235.283L238.444 235.115V235.073L238.318 234.946C238.318 234.904 238.318 234.904 238.36 234.862L238.57 234.82H238.612L238.738 234.651C238.738 234.609 238.696 234.609 238.738 234.651Z" fill="#3B82F6"/>
<path d="M239.664 234.651L239.706 234.82C239.706 234.82 239.706 234.82 239.748 234.82L239.916 234.862C239.958 234.862 239.958 234.904 239.916 234.946L239.748 235.073V235.115V235.283C239.748 235.325 239.706 235.325 239.706 235.325L239.538 235.241H239.495L239.327 235.325C239.285 235.325 239.285 235.325 239.285 235.283L239.369 235.115V235.073L239.243 234.946C239.243 234.904 239.243 234.904 239.285 234.862L239.495 234.82H239.538L239.664 234.651C239.664 234.609 239.622 234.609 239.664 234.651Z" fill="#3B82F6"/>
<path d="M240.631 234.651L240.674 234.82C240.674 234.82 240.674 234.82 240.716 234.82L240.884 234.862C240.926 234.862 240.926 234.904 240.884 234.946L240.716 235.073V235.115V235.283C240.716 235.325 240.674 235.325 240.674 235.325L240.505 235.241H240.463L240.295 235.325C240.253 235.325 240.253 235.325 240.253 235.283L240.337 235.115V235.073L240.211 234.946C240.211 234.904 240.211 234.904 240.253 234.862L240.463 234.82H240.505L240.631 234.651C240.631 234.609 240.589 234.609 240.631 234.651Z" fill="#3B82F6"/>
<path d="M241.558 234.651L241.431 235.241L241.263 235.325C241.221 235.325 241.221 235.326 241.221 235.283L241.305 235.115V235.073L241.178 234.946C241.178 234.904 241.178 234.904 241.221 234.862L241.431 234.82H241.473L241.558 234.651C241.515 234.651 241.515 234.651 241.558 234.651Z" fill="#3B82F6"/>
<path d="M153.997 133.488L125.217 165.173C123.029 167.574 122.987 171.282 125.091 173.768L143.773 195.467L150.884 190.369L137.84 170.018L162.076 147.139L153.997 133.488Z" fill="#3B82F6"/>
<path d="M127.911 166.352C128.247 166.352 128.542 166.057 128.542 165.72C128.542 165.383 128.247 165.088 127.911 165.088C127.574 165.088 127.28 165.383 127.28 165.72C127.28 166.057 127.574 166.352 127.911 166.352Z" fill="white"/>
<path d="M129.173 176.675C129.51 176.675 129.804 176.38 129.804 176.043C129.804 175.706 129.51 175.411 129.173 175.411C128.836 175.411 128.542 175.706 128.542 176.043C128.542 176.38 128.836 176.675 129.173 176.675Z" fill="white"/>
<path d="M156.733 210.466L156.564 213.079L155.807 213.331L155.386 213.458L153.956 213.921C153.535 214.048 153.114 213.795 153.03 213.374C153.03 213.331 153.03 213.247 153.03 213.205C153.03 212.952 153.156 212.699 153.367 212.573L155.933 210.972L156.27 210.761L156.733 210.466Z" fill="#FC9D9D"/>
<path d="M156.732 214.342L154.292 215.649C153.913 215.859 153.451 215.691 153.282 215.269C153.156 214.974 153.24 214.637 153.45 214.427L156.48 211.688L156.732 214.342Z" fill="#FC9D9D"/>
<path opacity="0.15" d="M156.564 212.826L156.732 210.466L156.185 210.803L155.849 211.014L153.282 212.615C153.072 212.742 152.945 212.994 152.945 213.247C152.945 213.289 152.945 213.331 152.945 213.416C153.029 213.837 153.492 214.09 153.871 213.963L153.997 213.921L153.408 214.469C153.198 214.68 153.114 215.017 153.24 215.312C153.408 215.733 153.871 215.902 154.25 215.691L156.69 214.385L156.564 212.826Z" fill="black"/>
<path d="M159.846 204.272L150.884 190.368L144.109 195.171L150.842 201.829C151.389 202.376 151.767 203.135 151.851 203.935L151.936 204.694C152.146 206.337 152.987 207.854 154.25 208.907L155.807 210.255C156.227 210.635 156.396 211.182 156.227 211.688L155.133 215.817C155.049 216.112 155.217 216.407 155.47 216.575C155.764 216.744 156.185 216.618 156.354 216.323L160.14 208.064C160.687 206.8 160.561 205.41 159.846 204.272Z" fill="#FC9D9D"/>
<path opacity="0.15" d="M156.185 210.803L155.849 211.014C155.891 211.225 155.891 211.477 155.849 211.772L155.807 211.899L153.408 213.879C153.408 213.879 153.661 214.005 154.04 213.879L154.166 213.795L155.596 212.615L155.344 213.5L154.797 215.396L155.302 215.101L155.765 213.373L156.185 211.899C156.312 211.435 156.27 211.056 156.185 210.803Z" fill="black"/>
<path d="M155.344 196.983L156.438 198.668L151.263 202.376L149.832 200.817L155.344 196.983Z" fill="#3F4249"/>
<path d="M155.007 196.773L156.438 198.964C156.522 199.132 156.732 199.175 156.9 199.048C157.027 198.964 157.069 198.753 156.985 198.627L155.554 196.436C155.47 196.309 155.259 196.225 155.133 196.352C154.923 196.436 154.881 196.604 155.007 196.773Z" fill="black"/>
<path d="M272.777 131.549L267.055 137.574L267.434 137.321C267.939 136.984 268.654 137.111 269.033 137.574C269.201 137.785 269.285 138.038 269.285 138.291C269.285 138.628 269.159 138.965 268.864 139.218L268.696 139.344C269.201 138.923 269.916 139.049 270.295 139.555C270.421 139.765 270.505 139.976 270.505 140.187C270.505 140.482 270.379 140.776 270.169 140.987L269.664 141.451C270.127 141.029 270.884 141.071 271.263 141.619C271.389 141.788 271.473 141.998 271.473 142.209C271.473 142.462 271.389 142.673 271.221 142.883L269.411 145.074L268.78 145.875C267.097 147.981 264.825 149.54 262.258 150.383L260.323 151.015L248.71 159.863L244.334 152.7L255.905 145.453L263.857 136.605L271.641 130.285C271.978 129.99 272.483 130.032 272.819 130.369C272.988 130.538 273.072 130.749 273.072 130.959C273.03 131.17 272.946 131.381 272.777 131.549Z" fill="#FC9D9D"/>
<path opacity="0.15" d="M260.996 148.993L259.313 149.54C259.145 149.583 258.977 149.667 258.808 149.793L247.28 158.178L248.626 159.948L260.239 151.099L262.174 150.467C264.741 149.625 267.013 148.066 268.696 145.959L269.327 145.159L271.136 142.968C271.305 142.757 271.389 142.546 271.389 142.293L268.738 144.99C267.055 147.139 263.563 148.15 260.996 148.993Z" fill="black"/>
<path d="M211.01 308.09L216.606 351.151C216.816 352.542 217.279 353.848 217.952 355.112L227.167 372.429L225.021 375.378L216.606 371.165L209.116 357.598C209.158 355.28 208.822 353.005 208.107 350.814L196.536 308.09H211.01Z" fill="#FC9D9D"/>
<path opacity="0.15" d="M216.564 358.272C215.891 357.05 214.628 354.017 214.376 352.626L208.317 319.298C208.022 317.655 206.886 316.265 205.372 315.633L197.714 312.473L197.377 311.208L211.893 314.621L216.648 351.109C216.858 352.5 217.321 353.806 217.994 355.07L227.209 372.387L225.905 374.578L216.564 358.272Z" fill="black"/>
<path d="M233.058 375.126L227.125 372.429C223.927 372.935 220.687 371.755 218.626 369.227L209.074 357.598C207.349 361.306 206.718 365.435 207.307 369.48L208.696 379.129H209.79L210.084 369.227C210.126 368.511 211.01 368.216 211.473 368.764L217.321 375.926C219.004 377.949 221.487 379.129 224.095 379.129H234.699C235.414 379.129 235.877 378.412 235.624 377.738C235.161 376.601 234.236 375.674 233.058 375.126Z" fill="#3B82F6"/>
<path d="M164.895 351.489C164.432 355.491 164.222 359.536 164.264 363.581L164.348 368.384C164.264 370.491 162.539 372.177 160.435 372.177H159.804C157.406 372.177 155.596 370.07 155.933 367.71L157.027 362.022C157.574 359.115 157.784 356.166 157.616 353.216L154.502 297.642L169.523 301.939L164.895 351.489Z" fill="#FC9D9D"/>
<path d="M198.934 201.703L211.894 314.959L154.628 300.254L154.039 257.404C153.829 238.949 154.797 220.579 159.341 202.714L159.635 201.576L198.934 201.703Z" fill="#3F4249"/>
<path opacity="0.15" d="M169.271 303.962L164.895 351.489C164.685 353.132 164.558 354.775 164.432 356.46V356.503C164.306 358.862 164.222 361.222 164.264 363.581L164.348 368.384C164.264 370.449 162.665 372.05 160.645 372.176C162.497 370.744 162.328 368.426 162.37 366.699L165.652 309.102C165.736 307.332 164.769 305.689 163.128 304.931L154.67 301.054L154.628 300.296L169.271 303.962Z" fill="black"/>
<path opacity="0.2" d="M173.983 205.958C181.01 205.958 186.942 211.14 187.868 218.135L201.374 312.304L211.851 315.001L199.355 206L173.983 205.958Z" fill="black"/>
<path d="M162.244 359.873C163.591 359.873 164.727 358.609 164.853 359.873C164.895 360.336 164.937 360.884 164.937 361.39L164.979 371.965C164.937 373.819 164.39 375.631 163.423 377.232L163.212 377.611C162.623 378.538 161.571 379.128 160.435 379.128H157.195C155.723 379.128 154.46 378.159 154.082 376.811C153.661 375.252 153.619 373.609 153.913 372.008L156.606 360.673C156.69 360.252 156.817 359.831 156.943 359.367C157.279 358.314 158.289 359.831 159.467 359.831H162.244V359.873Z" fill="#3B82F6"/>
<path opacity="0.15" d="M162.244 360.295C163.591 360.295 164.727 358.567 164.853 359.873C164.895 360.337 164.937 360.885 164.937 361.39L164.979 371.966C164.937 373.82 164.39 375.631 163.423 377.233L163.212 377.612C162.623 378.539 161.571 379.129 160.435 379.129H157.195C155.723 379.129 154.46 378.16 154.082 376.811C153.661 375.252 153.619 373.609 153.913 372.008L156.606 360.674C156.69 360.253 156.817 359.831 156.943 359.368C157.279 358.314 158.289 360.253 159.467 360.253H162.244V360.295Z" fill="black"/>
<path d="M164.937 366.657L164.684 366.362C163.717 365.266 161.949 365.814 161.739 367.247L159.888 379.17H157.826L158.247 367.457C158.289 365.982 156.564 365.14 155.428 366.109L157.195 358.904C157.363 358.272 158.036 357.893 158.668 358.146L159.635 358.525C160.561 358.904 161.613 358.904 162.581 358.567L163.548 358.23C164.264 357.977 165.021 358.525 165.021 359.283V366.657H164.937Z" fill="#3B82F6"/>
<path d="M195.232 112.041L194.558 106.311L191.361 98.8535H179.201L172.384 101.634L177.139 121.058L172.931 128.305L159.888 131.507L179.453 138.333L193.212 131.297L186.774 129.906L186.396 124.808H188.163C191.781 124.808 194.18 122.617 195.147 118.446L195.61 116.171V116.086C196.41 116.044 197.041 115.328 196.957 114.485C196.915 113.937 196.578 113.474 196.115 113.263C195.694 113.053 195.358 112.589 195.232 112.041Z" fill="#FC9D9D"/>
<path d="M225.947 173.557L203.1 155.65C203.226 156.24 203.352 158.178 203.352 158.768C203.352 159.695 203.226 160.58 202.973 161.464C202.511 163.066 201.627 164.498 200.491 165.678L199.187 167.068C198.934 167.321 198.808 167.658 198.808 168.037L198.934 201.702H159.509L152.945 155.861L152.272 137.575C152.272 134.625 154.292 132.097 158.752 131.465L167.083 129.78C170.533 133.108 182.188 133.698 189.299 130.412L195.232 131.76C198.682 132.645 200.996 134.162 203.31 136.353L230.701 160.285L247.868 150.425L253.002 157.42L233.058 173.557C231.038 175.158 228.051 175.2 225.947 173.557Z" fill="#3B82F6"/>
<path opacity="0.6" d="M247.911 150.383L253.044 157.378L251.319 158.768L245.933 151.521L247.911 150.383Z" fill="black"/>
<path opacity="0.6" d="M150.926 190.326L143.773 195.425L142.343 193.739L149.664 188.388L150.926 190.326Z" fill="black"/>
<path opacity="0.6" d="M189.341 130.369C189.341 130.369 185.681 132.518 176.003 132.434C176.003 132.434 170.071 132.434 165.526 129.695L162.455 130.58C166.41 133.277 179.622 137.322 191.824 130.917L189.341 130.369Z" fill="black"/>
<path opacity="0.15" d="M186.438 124.808L184.208 124.682C183.956 124.682 183.829 124.977 183.998 125.145L186.649 127.462L186.438 124.808Z" fill="black"/>
<path opacity="0.15" d="M230.407 171.113C228.471 172.588 225.821 172.756 223.717 171.534L220.519 169.301L225.989 173.599C228.219 175.326 231.122 175.2 233.268 173.43L253.044 157.419L251.445 155.229L230.407 171.113Z" fill="black"/>
<path opacity="0.15" d="M230.743 160.285L226.704 156.493L227.84 160.706C228.008 161.296 228.682 161.549 229.187 161.254L230.743 160.285Z" fill="black"/>
<g opacity="0.15">
<path opacity="0.15" d="M203.142 156.282C203.058 156.282 203.016 156.282 202.974 156.198L197.378 151.689C197.252 151.605 197.252 151.394 197.336 151.268C197.42 151.141 197.63 151.141 197.757 151.226L203.353 155.734C203.479 155.818 203.479 156.029 203.395 156.155C203.31 156.24 203.226 156.282 203.142 156.282Z" fill="black"/>
</g>
<path d="M159.51 201.703L158.584 205.958H199.44L198.935 201.703H159.51Z" fill="#21252B"/>
<path d="M196.41 136.521C196.747 136.521 197.041 136.226 197.041 135.889C197.041 135.552 196.747 135.257 196.41 135.257C196.073 135.257 195.779 135.552 195.779 135.889C195.779 136.226 196.073 136.521 196.41 136.521Z" fill="white"/>
<path d="M186.733 153.08C187.069 153.08 187.364 152.785 187.364 152.448C187.364 152.111 187.069 151.816 186.733 151.816C186.396 151.816 186.101 152.111 186.101 152.448C186.101 152.785 186.396 153.08 186.733 153.08Z" fill="white"/>
<path d="M153.24 137.406C153.577 137.406 153.871 137.111 153.871 136.774C153.871 136.437 153.577 136.142 153.24 136.142C152.904 136.142 152.609 136.437 152.609 136.774C152.609 137.111 152.904 137.406 153.24 137.406Z" fill="white"/>
<path d="M139.818 165.088C140.155 165.088 140.449 164.793 140.449 164.456C140.449 164.119 140.155 163.824 139.818 163.824C139.482 163.824 139.187 164.119 139.187 164.456C139.187 164.793 139.482 165.088 139.818 165.088Z" fill="white"/>
<path d="M141.88 188.388C142.216 188.388 142.511 188.093 142.511 187.756C142.511 187.419 142.216 187.124 141.88 187.124C141.543 187.124 141.249 187.419 141.249 187.756C141.249 188.093 141.543 188.388 141.88 188.388Z" fill="white"/>
<path d="M149.579 153.08C149.916 153.08 150.211 152.785 150.211 152.448C150.211 152.111 149.916 151.816 149.579 151.816C149.243 151.816 148.948 152.111 148.948 152.448C148.948 152.785 149.243 153.08 149.579 153.08Z" fill="white"/>
<path d="M138.556 153.754C138.892 153.754 139.187 153.459 139.187 153.122C139.187 152.785 138.892 152.49 138.556 152.49C138.219 152.49 137.925 152.785 137.925 153.122C137.925 153.459 138.219 153.754 138.556 153.754Z" fill="white"/>
<path d="M139.187 176.675C139.523 176.675 139.818 176.38 139.818 176.043C139.818 175.706 139.523 175.411 139.187 175.411C138.85 175.411 138.555 175.706 138.555 176.043C138.555 176.38 138.85 176.675 139.187 176.675Z" fill="white"/>
<path d="M183.619 167.616C183.955 167.616 184.25 167.321 184.25 166.984C184.25 166.647 183.955 166.352 183.619 166.352C183.282 166.352 182.987 166.647 182.987 166.984C182.987 167.321 183.282 167.616 183.619 167.616Z" fill="white"/>
<path d="M184.881 182.952C185.217 182.952 185.512 182.658 185.512 182.32C185.512 181.983 185.217 181.688 184.881 181.688C184.544 181.688 184.25 181.983 184.25 182.32C184.25 182.658 184.544 182.952 184.881 182.952Z" fill="white"/>
<path d="M183.619 201.66C183.955 201.66 184.25 201.365 184.25 201.028C184.25 200.691 183.955 200.396 183.619 200.396C183.282 200.396 182.987 200.691 182.987 201.028C182.987 201.365 183.282 201.66 183.619 201.66Z" fill="white"/>
<path d="M195.442 193.823C195.779 193.823 196.073 193.528 196.073 193.191C196.073 192.854 195.779 192.559 195.442 192.559C195.106 192.559 194.811 192.854 194.811 193.191C194.811 193.528 195.106 193.823 195.442 193.823Z" fill="white"/>
<path d="M159.846 162.602C160.183 162.602 160.477 162.307 160.477 161.97C160.477 161.633 160.183 161.338 159.846 161.338C159.509 161.338 159.215 161.633 159.215 161.97C159.215 162.307 159.509 162.602 159.846 162.602Z" fill="white"/>
<path d="M172.048 174.358C172.385 174.358 172.679 174.063 172.679 173.726C172.679 173.389 172.385 173.094 172.048 173.094C171.711 173.094 171.417 173.389 171.417 173.726C171.417 174.063 171.711 174.358 172.048 174.358Z" fill="white"/>
<path d="M171.417 187.714C171.753 187.714 172.048 187.419 172.048 187.082C172.048 186.745 171.753 186.45 171.417 186.45C171.08 186.45 170.785 186.745 170.785 187.082C170.785 187.419 171.08 187.714 171.417 187.714Z" fill="white"/>
<path d="M166.242 199.722C166.578 199.722 166.873 199.427 166.873 199.09C166.873 198.753 166.578 198.458 166.242 198.458C165.905 198.458 165.61 198.753 165.61 199.09C165.61 199.427 165.905 199.722 166.242 199.722Z" fill="white"/>
<path d="M159.215 182.321C159.552 182.321 159.846 182.026 159.846 181.689C159.846 181.352 159.552 181.057 159.215 181.057C158.879 181.057 158.584 181.352 158.584 181.689C158.584 182.026 158.879 182.321 159.215 182.321Z" fill="white"/>
<path d="M196.073 179.582C196.41 179.582 196.704 179.287 196.704 178.95C196.704 178.613 196.41 178.318 196.073 178.318C195.736 178.318 195.442 178.613 195.442 178.95C195.442 179.287 195.736 179.582 196.073 179.582Z" fill="white"/>
<path d="M171.417 157.082C171.753 157.082 172.048 156.787 172.048 156.45C172.048 156.113 171.753 155.818 171.417 155.818C171.08 155.818 170.785 156.113 170.785 156.45C170.785 156.787 171.08 157.082 171.417 157.082Z" fill="white"/>
<path d="M181.388 138.08C181.725 138.08 182.02 137.785 182.02 137.448C182.02 137.111 181.725 136.816 181.388 136.816C181.052 136.816 180.757 137.111 180.757 137.448C180.757 137.785 181.052 138.08 181.388 138.08Z" fill="white"/>
<path d="M200.659 150.383C200.996 150.383 201.29 150.088 201.29 149.751C201.29 149.414 200.996 149.119 200.659 149.119C200.323 149.119 200.028 149.414 200.028 149.751C200.028 150.088 200.323 150.383 200.659 150.383Z" fill="white"/>
<path d="M199.187 164.414C199.524 164.414 199.818 164.119 199.818 163.782C199.818 163.445 199.524 163.15 199.187 163.15C198.85 163.15 198.556 163.445 198.556 163.782C198.556 164.119 198.85 164.414 199.187 164.414Z" fill="white"/>
<path d="M214.334 148.698C214.67 148.698 214.965 148.403 214.965 148.066C214.965 147.729 214.67 147.434 214.334 147.434C213.997 147.434 213.703 147.729 213.703 148.066C213.703 148.403 213.997 148.698 214.334 148.698Z" fill="white"/>
<path d="M226.074 167.658C226.41 167.658 226.705 167.363 226.705 167.026C226.705 166.689 226.41 166.394 226.074 166.394C225.737 166.394 225.442 166.689 225.442 167.026C225.442 167.363 225.737 167.658 226.074 167.658Z" fill="white"/>
<path d="M216.564 159.99C216.9 159.99 217.195 159.695 217.195 159.358C217.195 159.021 216.9 158.726 216.564 158.726C216.227 158.726 215.933 159.021 215.933 159.358C215.933 159.695 216.227 159.99 216.564 159.99Z" fill="white"/>
<path d="M240.043 165.72C240.379 165.72 240.674 165.425 240.674 165.088C240.674 164.751 240.379 164.456 240.043 164.456C239.706 164.456 239.411 164.751 239.411 165.088C239.411 165.425 239.706 165.72 240.043 165.72Z" fill="white"/>
<path d="M245.933 154.386C246.269 154.386 246.564 154.091 246.564 153.754C246.564 153.417 246.269 153.122 245.933 153.122C245.596 153.122 245.302 153.417 245.302 153.754C245.302 154.091 245.596 154.386 245.933 154.386Z" fill="white"/>
<path opacity="0.15" d="M152.188 149.246L136.41 166.015C135.947 166.478 135.905 167.195 136.284 167.742L137.84 169.976L152.904 155.819L152.188 149.246Z" fill="black"/>
<path d="M172.974 148.066L172.553 147.602C177.097 143.515 176.214 139.471 174.573 134.583C172.048 127.083 176.13 124.387 176.298 124.26L176.634 124.808L176.466 124.555L176.634 124.808C176.466 124.892 172.806 127.378 175.162 134.372C176.508 138.375 178.191 143.347 172.974 148.066Z" fill="#21252B"/>
<path d="M187.784 93.7133C190.393 94.8088 193.17 96.8733 195.526 100.665L196.073 100.328C191.866 93.5447 186.228 92.1122 182.441 92.0279C166.957 89.7527 158.542 108.292 168.43 121.69C169.271 122.828 169.608 124.26 169.271 125.609C168.514 129.148 164.601 128.347 158.962 132.814C150.505 139.513 150.505 152.237 150.505 152.237L151.641 152.659L152.693 151.142L152.357 152.869L160.477 155.734C161.782 152.069 164.306 149.456 164.306 149.456C163.254 151.479 162.286 154.723 161.866 156.24L168.892 158.726C166.789 148.108 176.634 147.013 174.152 136.69C172.511 129.864 176.845 124.808 176.845 124.808L178.654 124.176C194.727 118.614 192.034 102.435 192.034 102.435C193.296 102.519 194.432 106.311 194.432 106.311L196.368 105.342C196.41 105.342 194.643 97.3789 187.784 93.7133Z" fill="#21252B"/>
<path d="M168.935 126.62C173.31 126.198 174.489 129.359 174.489 129.359C176.887 129.148 176.13 126.831 176.13 126.831C174.11 123.165 169.355 123.713 169.355 123.713C169.355 123.713 168.219 123.713 167.925 125.272C167.63 126.83 168.935 126.62 168.935 126.62Z" fill="#3B82F6"/>
<path d="M194.769 115.538C193.759 115.538 193.212 113.389 193.212 111.325C193.212 109.26 193.759 107.111 194.769 107.111C195.778 107.111 196.325 109.26 196.325 111.325C196.325 113.389 195.736 115.538 194.769 115.538ZM194.769 107.617C194.306 107.617 193.675 109.049 193.675 111.367C193.675 113.684 194.306 115.117 194.769 115.117C195.231 115.117 195.863 113.684 195.863 111.367C195.863 109.049 195.189 107.617 194.769 107.617Z" fill="#21252B"/>
<path opacity="0.15" d="M199.187 167.026L196.999 169.175C195.063 171.029 193.969 173.641 193.969 176.338V201.618L198.976 201.745L198.85 168.08C198.808 167.995 198.766 167.532 199.187 167.026Z" fill="black"/>
<path opacity="0.15" d="M195.148 118.572C195.106 118.572 194.096 118.446 193.422 117.687L193.759 117.308C194.39 118.024 195.274 118.109 195.274 118.109L195.148 118.572Z" fill="black"/>
<path d="M97.7422 279.229C97.3214 276.448 95.5121 274.299 93.1559 273.246L93.7029 272.614H89.9581C89.6636 272.614 89.4112 272.656 89.1166 272.656L49.7337 277.67C45.3158 278.218 41.7814 281.378 40.6454 285.675L16.3677 379.086H22.2162L46.1152 287.15C46.6622 285.128 48.3452 283.611 50.407 283.358L89.7898 278.344C90.9259 278.218 91.9357 278.976 92.104 280.114L107.167 379.17H112.889L97.7422 279.229Z" fill="#B2B6BB"/>
<path d="M25.8347 379.128H19.9862L44.2639 285.717C45.4 281.42 48.9343 278.302 53.3523 277.712L92.7352 272.698C96.9427 272.15 100.73 275.015 101.361 279.229L116.55 379.128H110.828L95.7646 280.113C95.5963 278.976 94.5865 278.217 93.4505 278.344L54.0676 283.358C51.9638 283.611 50.2807 285.127 49.7758 287.15L25.8347 379.128Z" fill="#868A91"/>
<path d="M160.94 314.116H67.0269C64.9651 314.116 63.2821 312.431 63.2821 310.366C63.2821 308.302 64.9651 306.616 67.0269 306.616H160.94C163.002 306.616 164.685 308.302 164.685 310.366C164.685 312.431 163.002 314.116 160.94 314.116Z" fill="#3F4249"/>
<path d="M80.4913 314.116H27.3496C25.2879 314.116 23.6049 312.431 23.6049 310.366C23.6049 308.302 25.2879 306.616 27.3496 306.616H80.4913C82.553 306.616 84.236 308.302 84.236 310.366C84.236 312.431 82.553 314.116 80.4913 314.116Z" fill="#61656D"/>
<path d="M82.1323 225.719C81.6694 223.907 80.0706 222.643 78.1772 222.643H23.2262C20.6175 222.643 18.64 225.087 19.2711 227.657L37.3637 306.616H102.034L82.1323 225.719Z" fill="#3F4249"/>
<path d="M74.0535 225.719C73.5907 223.907 71.9918 222.643 70.0984 222.643H15.1475C12.5388 222.643 10.5612 225.087 11.1924 227.657L30.1265 306.616H93.9554L74.0535 225.719Z" fill="#61656D"/>
<path opacity="0.3" d="M29.9583 305.815L87.9807 305.858L87.7703 306.574H30.1266L29.9583 305.815Z" fill="black"/>
<path d="M150.295 279.229C149.874 276.448 148.065 274.299 145.708 273.246L146.255 272.614H142.51C142.216 272.614 141.964 272.656 141.669 272.656L102.286 277.67C97.8681 278.218 94.3338 281.378 93.1977 285.675L68.92 379.086H74.7686L98.6676 287.066C99.2146 285.043 100.898 283.526 102.959 283.274L142.342 278.26C143.478 278.133 144.488 278.892 144.656 280.029L159.719 379.086H165.442L150.295 279.229Z" fill="#B2B6BB"/>
<path d="M78.3871 379.128H72.5386L96.8163 285.717C97.9523 281.42 101.487 278.302 105.905 277.712L145.288 272.698C149.495 272.15 153.282 275.015 153.913 279.229L169.102 379.128H163.38L148.317 280.071C148.149 278.934 147.139 278.175 146.003 278.302L106.62 283.316C104.516 283.568 102.833 285.085 102.328 287.108L78.3871 379.128Z" fill="#868A91"/>
<path d="M447.938 38.2646H210.505V38.8545H447.938V38.2646Z" fill="#3B82F6"/>
<path opacity="0.5" d="M447.938 38.2646H210.505V38.8545H447.938V38.2646Z" fill="white"/>
</svg>
