<svg width="364" height="307" viewBox="0 0 364 307" fill="none" xmlns="http://www.w3.org/2000/svg">
<path opacity="0.24" d="M359.3 109.511C353.985 141.468 352.051 173.897 353.533 206.259C353.533 236.508 356.192 258.103 338.4 274.337C318.979 292.077 288.72 285.299 262.449 286.504C227.471 288.108 194.625 305.821 159.628 306.479C136.74 306.929 114.386 300.001 93.1072 291.594C66.0871 280.906 39.3146 267.135 20.5191 244.977C11.5841 234.471 6.49423 224.155 3.75703 213.617C0.244279 199.989 0.648342 185.938 1.70412 170.356C1.9257 167.097 2.17987 163.682 2.42753 160.248C4.83887 127.877 -6.65739 95.4866 10.1047 64.9211C26.5671 34.9422 63.402 22.5596 97.4737 19.6855C131.545 16.8115 166.503 20.637 199.474 11.5847C211.856 8.15017 223.861 2.92993 236.622 1.19637C248.47 -0.406853 260.513 1.04647 272.329 2.92993C291.02 5.91479 309.868 10.001 326.421 19.1902C342.975 28.3794 357.13 43.3037 361.614 61.6691C365.374 77.2907 361.94 93.6552 359.3 109.511Z" fill="#3B82F6"/>
<path d="M353.194 186.555C353.047 187.201 352.747 187.802 352.321 188.309C352.077 188.597 351.765 188.82 351.415 188.96C350.183 189.436 348.854 188.654 347.752 187.904C345.322 186.327 342.985 184.61 340.753 182.762C339.449 181.628 337.768 180.156 337.716 178.442C337.673 177.8 337.85 177.164 338.218 176.636C338.644 176.023 339.215 175.524 339.88 175.183C340.545 174.842 341.283 174.67 342.03 174.681C343.518 174.698 344.981 175.067 346.299 175.757C348.432 176.681 350.289 178.143 351.689 179.999C352.39 180.923 352.887 181.985 353.146 183.115C353.406 184.246 353.422 185.418 353.194 186.555Z" fill="#3B82F6"/>
<path d="M352.321 188.309C352.076 188.597 351.765 188.821 351.415 188.961C350.183 189.436 348.853 188.654 347.752 187.905C345.322 186.327 342.985 184.61 340.753 182.763C339.449 181.629 337.768 180.156 337.716 178.442C338.611 177.577 339.807 177.093 341.052 177.093C342.546 177.113 344.014 177.481 345.341 178.168C347.47 179.102 349.327 180.562 350.737 182.411C351.989 184.107 352.555 186.213 352.321 188.309Z" fill="url(#paint0_linear_1336_22450)"/>
<path d="M136.681 132.913C135.13 135.852 130.483 135.52 128.456 138.088C127.577 139.189 127.348 140.695 127.153 142.102C126.254 148.672 125.322 155.221 124.396 161.771C126.931 163.329 129.564 165.03 130.868 167.721C132.171 170.413 131.343 174.238 128.535 175.223C125.498 176.2 122.715 173.437 120.004 171.755C116.843 169.748 111.851 169.527 110.065 172.837C111.851 173.893 113.682 175.02 114.862 176.748C116.041 178.475 116.393 180.958 115.109 182.613C113.232 184.946 109.563 184.19 106.78 183.037C103.997 181.883 100.661 180.651 98.2493 182.463C100.123 183.909 101.686 185.718 102.844 187.781C103.541 188.987 104.043 190.538 103.268 191.691C102.492 192.845 100.785 192.845 99.3573 192.591C92.7619 191.366 86.7857 186.947 80.1642 186.647C79.7628 186.621 79.36 186.621 78.9586 186.647C72.109 186.849 66.4652 191.691 60.5672 195.204C60.3348 195.352 60.0932 195.485 59.8438 195.602C55.3616 198.23 50.5048 200.16 45.4408 201.324C42.8014 201.93 40.1685 201.5 37.5877 202.275C34.6484 203.155 32.2436 205.039 29.8583 206.968C20.3824 214.71 14.7211 214.569 7.50012 224.508C3.98738 210.88 0.413819 204.947 1.4696 189.365C3.19664 188.615 4.57828 188.009 4.72818 187.911C11.5495 183.845 18.3903 179.795 25.2507 175.763C25.7544 175.419 26.3147 175.165 26.9061 175.014C28.8156 174.688 30.2689 176.493 31.2726 178.201C34.6354 173.306 39.4516 169.442 44.3981 166.183C49.866 162.521 55.6141 159.308 61.3427 156.069C66.6086 153.084 71.9005 150.125 77.1729 147.134C83.0383 143.875 88.9885 140.512 95.3362 138.205C100.758 136.25 106.454 135.044 111.772 132.809C117.195 130.573 121.007 128.442 126.762 127.491C128.997 127.139 132.627 126.663 134.543 127.817C136.459 128.97 137.711 130.899 136.681 132.913Z" fill="#FECB9C"/>
<path d="M85.2736 183.394C84.8696 184.945 82.8362 185.526 81.1548 185.728C80.942 185.795 80.7455 185.906 80.5773 186.053C80.4092 186.2 80.273 186.38 80.1772 186.581C79.7757 186.555 79.373 186.555 78.9715 186.581C72.122 186.783 66.4782 191.626 60.5801 195.138C60.3478 195.286 60.1061 195.419 59.8567 195.536C59.3288 193.835 59.3549 188.967 62.9393 177.777C63.5911 175.821 64.321 173.215 64.8945 171.325C65.229 170.073 65.7194 168.869 66.3543 167.74C68.5954 164.269 72.0474 161.756 76.0388 160.689C76.3993 160.544 76.7857 160.476 77.1738 160.489C77.5618 160.501 77.9432 160.594 78.2938 160.76C79.0498 161.21 79.1475 162.24 78.8999 163.048C78.6522 163.856 78.1178 164.573 77.8441 165.381C76.7166 168.411 79.1475 171.448 81.031 174.134C82.5876 176.297 83.8765 178.64 84.8696 181.113C85.238 181.813 85.3792 182.611 85.2736 183.394Z" fill="url(#paint1_linear_1336_22450)"/>
<path d="M143.104 146.856L122.574 122.328C121.398 120.923 119.306 120.737 117.901 121.913L66.4713 164.961C65.0665 166.137 64.8808 168.229 66.0568 169.634L86.5871 194.162C87.763 195.567 89.8552 195.752 91.2601 194.577L142.69 151.529C144.095 150.353 144.28 148.261 143.104 146.856Z" fill="#3B82F6"/>
<path d="M143.104 146.856L122.574 122.328C121.398 120.923 119.306 120.737 117.901 121.913L66.4713 164.961C65.0665 166.137 64.8808 168.229 66.0568 169.634L86.5871 194.162C87.763 195.567 89.8552 195.752 91.2601 194.577L142.69 151.529C144.095 150.353 144.28 148.261 143.104 146.856Z" fill="url(#paint2_linear_1336_22450)"/>
<path d="M139.046 148.586L119.884 125.692C118.833 124.437 116.962 124.271 115.707 125.322L71.5333 162.296C70.2775 163.347 70.1115 165.217 71.1627 166.473L90.3252 189.367C91.3764 190.622 93.2466 190.788 94.5024 189.737L138.676 152.763C139.932 151.712 140.097 149.842 139.046 148.586Z" fill="#FFFBFF"/>
<path d="M36.1603 159.979C38.8114 157.495 41.682 155.257 44.7369 153.292C48.043 151.368 51.4946 149.705 55.0601 148.319C61.7858 145.524 68.518 142.715 75.4848 140.616C77.6029 139.964 79.734 139.404 81.8651 138.837L100.289 133.897C100.869 135.741 99.872 137.696 98.7576 139.274C95.2802 144.195 90.4092 147.963 84.7718 150.092C83.1751 150.692 81.5132 151.174 80.1576 152.236C79.1721 153.121 78.2968 154.121 77.5508 155.215C73.4775 160.428 67.5143 164.397 65.1682 170.582C64.3796 172.635 64.0146 174.877 62.8481 176.734C61.5446 178.774 59.4591 180.13 57.4193 181.414C49.5987 186.36 41.5435 191.359 32.5498 193.653C31.4875 194.016 30.344 194.07 29.2521 193.809C28.1869 193.344 27.2711 192.593 26.6062 191.639C24.2079 188.817 21.6205 186.067 19.3852 183.115C17.2345 180.267 18.2642 178.481 20.4475 176.05C25.393 170.415 30.6382 165.05 36.1603 159.979Z" fill="#FECB9C"/>
<path d="M118.451 158.279L105.164 141.817L96.9736 148.428L110.261 164.889L118.451 158.279Z" fill="#FFFBFF"/>
<path d="M353.448 235.232C346.071 224.068 335.584 215.387 325.268 206.876C322.909 204.921 320.504 203.064 317.545 202.184C314.984 201.408 312.331 201.838 309.685 201.232C304.529 200.042 299.588 198.063 295.035 195.367L294.585 195.093C288.72 191.58 283.043 186.738 276.194 186.536C274.879 186.496 273.566 186.623 272.283 186.914C266.718 188.041 261.524 191.476 255.828 192.506C254.446 192.76 252.764 192.76 251.917 191.606C251.07 190.453 251.663 188.921 252.341 187.696C253.502 185.627 255.075 183.817 256.962 182.378C254.55 180.566 251.187 181.824 248.431 182.952C245.674 184.079 241.953 184.861 240.102 182.528C238.798 180.892 239.118 178.409 240.323 176.663C241.529 174.916 243.36 173.828 245.12 172.752C243.36 169.442 238.342 169.663 235.181 171.67C232.496 173.352 229.713 176.115 226.676 175.138C223.867 174.18 223.059 170.295 224.317 167.636C225.575 164.977 228.227 163.244 230.789 161.686C229.863 155.136 228.957 148.587 228.032 142.017C227.856 140.61 227.602 139.104 226.728 138.003C224.702 135.396 220.055 135.767 218.53 132.828C217.5 130.821 218.706 128.918 220.635 127.738C222.564 126.559 226.181 127.087 228.39 127.412C234.184 128.364 237.971 130.495 243.419 132.73C248.711 134.966 254.433 136.171 259.829 138.127C266.177 140.434 272.12 143.77 278.018 147.055C283.291 150.046 288.557 153.005 293.849 155.99C299.597 159.249 305.319 162.442 310.793 166.105C315.74 169.363 320.569 173.228 323.945 178.122C324.922 176.415 326.376 174.61 328.305 174.935C328.891 175.085 329.445 175.339 329.941 175.685C336.792 179.726 343.642 183.775 350.489 187.833C350.965 188.107 352.666 189.28 352.92 189.756C352.386 204.712 351.916 220.425 353.448 235.232Z" fill="#FECB9C"/>
<path d="M338.954 180.384L335.884 178.767C335.741 178.67 335.568 178.626 335.396 178.643C335.241 178.699 335.113 178.811 335.037 178.956C334.506 179.904 334.157 180.943 334.007 182.019C333.009 186.515 330.958 190.709 328.025 194.259C326.382 196.246 324.395 198.169 323.821 200.665C323.248 203.161 324.193 205.716 325.737 207.684C327.282 209.652 329.432 211.118 331.524 212.422C333.616 213.725 335.832 215.029 337.624 216.801C342.506 213.608 345.191 208.003 347.231 202.535C347.335 202.249 347.544 201.884 347.882 201.949C348.023 201.992 348.145 202.082 348.228 202.203C349.831 204.08 350.763 206.55 352.79 207.997L353.546 190.589C353.598 190.225 353.548 189.853 353.402 189.514C353.175 189.19 352.858 188.939 352.49 188.791C348.325 186.613 344.354 184.082 340.622 181.224" fill="url(#paint3_linear_1336_22450)"/>
<path d="M351.89 190.622C351.89 190.068 352.19 191.124 351.89 190.622V190.622Z" fill="#FECB9C"/>
<path d="M305.475 190.798C305.536 191.689 305.389 192.581 305.045 193.405C304.191 195.034 302.034 195.412 300.203 195.49C298.48 195.554 296.754 195.519 295.035 195.386L294.585 195.112C288.72 191.6 283.043 186.757 276.194 186.555C274.88 186.516 273.566 186.643 272.283 186.933C270.971 186.022 269.768 184.961 268.699 183.773C267.151 181.988 266.016 179.885 265.373 177.611C264.731 175.338 264.598 172.951 264.984 170.621C266.34 162.846 277.367 153.083 283.675 162.292C285.607 165.237 287.882 167.941 290.453 170.347C294.442 174.062 300.464 174.987 303.527 179.908C305.423 183.095 305.475 187.005 305.475 190.798Z" fill="url(#paint4_linear_1336_22450)"/>
<path d="M268.567 194.157L289.097 169.629C290.273 168.224 290.088 166.132 288.683 164.956L237.253 121.908C235.848 120.732 233.756 120.918 232.58 122.323L212.05 146.851C210.874 148.255 211.059 150.348 212.464 151.524L263.894 194.571C265.299 195.747 267.391 195.562 268.567 194.157Z" fill="#3B82F6"/>
<path d="M268.567 194.157L289.097 169.629C290.273 168.224 290.088 166.132 288.683 164.956L237.253 121.908C235.848 120.732 233.756 120.918 232.58 122.323L212.05 146.851C210.874 148.255 211.059 150.348 212.464 151.524L263.894 194.571C265.299 195.747 267.391 195.562 268.567 194.157Z" fill="url(#paint5_linear_1336_22450)"/>
<path d="M264.824 189.35L283.986 166.456C285.037 165.201 284.871 163.33 283.616 162.279L239.442 125.305C238.186 124.254 236.316 124.42 235.265 125.676L216.103 148.57C215.051 149.826 215.217 151.696 216.473 152.747L260.646 189.721C261.902 190.772 263.772 190.606 264.824 189.35Z" fill="#FFFBFF"/>
<path d="M319.005 159.979C316.355 157.497 313.486 155.259 310.435 153.292C307.126 151.368 303.673 149.705 300.105 148.319C293.386 145.524 286.647 142.715 279.68 140.616C277.569 139.964 275.431 139.404 273.3 138.837L254.876 133.897C254.296 135.741 255.293 137.696 256.408 139.274C259.885 144.195 264.756 147.963 270.393 150.092C271.99 150.692 273.652 151.174 275.014 152.236C275.998 153.122 276.873 154.122 277.621 155.215C281.694 160.428 287.657 164.397 290.036 170.582C290.825 172.635 291.19 174.877 292.363 176.734C293.666 178.774 295.745 180.13 297.785 181.414C305.638 186.36 313.661 191.359 322.654 193.653C323.717 194.016 324.86 194.07 325.952 193.809C327.018 193.342 327.936 192.591 328.605 191.639C330.996 188.817 333.59 186.067 335.819 183.115C337.97 180.267 336.94 178.481 334.757 176.05C329.799 170.414 324.54 165.049 319.005 159.979Z" fill="#FECB9C"/>
<path d="M244.898 164.875L258.185 148.414L249.995 141.803L236.708 158.264L244.898 164.875Z" fill="#FFFBFF"/>
<path d="M144.56 136.093L143.185 134.17C145.882 132.379 148.746 130.852 151.736 129.608L152.668 131.779C149.835 132.958 147.12 134.402 144.56 136.093ZM206.825 132.117C203.974 130.901 201.051 129.861 198.073 129.002L198.724 126.734C201.796 127.619 204.811 128.692 207.751 129.947L206.825 132.117ZM161.42 128.702L160.768 126.421C163.858 125.574 167.003 124.938 170.179 124.518L170.485 126.865C167.425 127.267 164.396 127.881 161.42 128.702ZM189.007 127.047C185.947 126.596 182.859 126.354 179.766 126.324V123.958C182.968 123.992 186.165 124.245 189.333 124.714L189.007 127.047Z" fill="#3B82F6"/>
<path d="M339.443 179.765C339.443 179.765 326.174 201.995 325.268 206.876C324.362 211.757 334.027 219.33 336.145 219.33C338.263 219.33 350.437 187.911 350.437 187.911C350.437 187.911 347.68 182.124 339.443 179.765Z" fill="#3B82F6"/>
<path d="M339.775 179.875C339.775 179.875 326.702 202.321 325.802 207.248C324.903 212.175 334.555 219.695 336.673 219.695C338.791 219.695 350.541 188.081 350.541 188.081C350.541 188.081 348.013 182.228 339.775 179.875Z" fill="url(#paint6_linear_1336_22450)"/>
<path opacity="0.24" d="M105.418 170.158C112.311 170.158 117.898 164.571 117.898 157.678C117.898 150.785 112.311 145.198 105.418 145.198C98.5254 145.198 92.9377 150.785 92.9377 157.678C92.9377 164.571 98.5254 170.158 105.418 170.158Z" fill="#3B82F6"/>
<path opacity="0.24" d="M250.894 169.402C257.787 169.402 263.374 163.814 263.374 156.922C263.374 150.029 257.787 144.441 250.894 144.441C244.001 144.441 238.414 150.029 238.414 156.922C238.414 163.814 244.001 169.402 250.894 169.402Z" fill="#3B82F6"/>
<path d="M159.448 75.5078V48.8678H170.248C172.216 48.8678 173.896 49.2158 175.288 49.9118C176.704 50.6078 177.784 51.5678 178.528 52.7918C179.296 54.0158 179.68 55.4318 179.68 57.0398C179.68 58.7918 179.236 60.3278 178.348 61.6478C177.46 62.9438 176.2 63.8918 174.568 64.4918L180.364 75.5078H174.208L168.916 65.2478H164.992V75.5078H159.448ZM170.176 53.6558H164.992V60.7118H170.176C171.4 60.7118 172.36 60.3758 173.056 59.7038C173.752 59.0318 174.1 58.2038 174.1 57.2198C174.1 56.2118 173.752 55.3718 173.056 54.6998C172.36 54.0038 171.4 53.6558 170.176 53.6558ZM185.077 82.5278V56.4278H190.549V58.8758H190.801C190.921 58.7078 191.185 58.3958 191.593 57.9398C192.025 57.4838 192.637 57.0638 193.429 56.6798C194.221 56.2718 195.229 56.0678 196.453 56.0678C197.869 56.0678 199.093 56.3558 200.125 56.9318C201.181 57.4838 202.057 58.2398 202.753 59.1998C203.449 60.1358 203.965 61.1918 204.301 62.3678C204.661 63.5438 204.841 64.7438 204.841 65.9678C204.841 67.1918 204.661 68.3918 204.301 69.5678C203.965 70.7438 203.449 71.8118 202.753 72.7718C202.057 73.7078 201.181 74.4638 200.125 75.0398C199.093 75.5918 197.869 75.8678 196.453 75.8678C195.229 75.8678 194.221 75.6758 193.429 75.2918C192.637 74.8838 192.025 74.4518 191.593 73.9958C191.185 73.5398 190.921 73.2278 190.801 73.0598H190.549V82.5278H185.077ZM190.441 65.9678C190.441 66.8558 190.597 67.7198 190.909 68.5598C191.245 69.3998 191.737 70.0958 192.385 70.6478C193.057 71.1758 193.885 71.4398 194.869 71.4398C195.853 71.4398 196.669 71.1758 197.317 70.6478C197.989 70.0958 198.481 69.3998 198.793 68.5598C199.129 67.7198 199.297 66.8558 199.297 65.9678C199.297 65.0798 199.129 64.2158 198.793 63.3758C198.481 62.5358 197.989 61.8518 197.317 61.3238C196.669 60.7718 195.853 60.4958 194.869 60.4958C193.885 60.4958 193.057 60.7718 192.385 61.3238C191.737 61.8518 191.245 62.5358 190.909 63.3758C190.597 64.2158 190.441 65.0798 190.441 65.9678Z" fill="#1D4ED8"/>
<defs>
<linearGradient id="paint0_linear_1336_22450" x1="347.732" y1="178.481" x2="342.434" y2="188.022" gradientUnits="userSpaceOnUse">
<stop stop-color="#010101" stop-opacity="0"/>
<stop offset="0.95" stop-color="#010101"/>
</linearGradient>
<linearGradient id="paint1_linear_1336_22450" x1="43.44" y1="183.655" x2="265.473" y2="133.212" gradientUnits="userSpaceOnUse">
<stop stop-color="#010101" stop-opacity="0"/>
<stop offset="0.95" stop-color="#010101"/>
</linearGradient>
<linearGradient id="paint2_linear_1336_22450" x1="135.062" y1="164.583" x2="-39.6697" y2="128.315" gradientUnits="userSpaceOnUse">
<stop stop-color="#010101" stop-opacity="0"/>
<stop offset="0.95" stop-color="#010101"/>
</linearGradient>
<linearGradient id="paint3_linear_1336_22450" x1="300.17" y1="161.23" x2="406.498" y2="262.252" gradientUnits="userSpaceOnUse">
<stop stop-color="#010101" stop-opacity="0"/>
<stop offset="0.95" stop-color="#010101"/>
</linearGradient>
<linearGradient id="paint4_linear_1336_22450" x1="252.224" y1="201.91" x2="484.762" y2="42.8781" gradientUnits="userSpaceOnUse">
<stop stop-color="#010101" stop-opacity="0"/>
<stop offset="0.95" stop-color="#010101"/>
</linearGradient>
<linearGradient id="paint5_linear_1336_22450" x1="220.629" y1="174.241" x2="410.904" y2="72.5082" gradientUnits="userSpaceOnUse">
<stop stop-color="#010101" stop-opacity="0"/>
<stop offset="0.95" stop-color="#010101"/>
</linearGradient>
<linearGradient id="paint6_linear_1336_22450" x1="337.083" y1="187.963" x2="343.913" y2="253.428" gradientUnits="userSpaceOnUse">
<stop stop-color="#010101" stop-opacity="0"/>
<stop offset="0.95" stop-color="#010101"/>
</linearGradient>
</defs>
</svg>
