<svg width="122" height="28" viewBox="0 0 122 28" fill="none" xmlns="http://www.w3.org/2000/svg">
    <path d="M27.5171 9.3568C26.0026 3.4978 21.4196 0 15.2581 0H0L0.301229 0.724832C1.5946 3.83727 4.52024 5.8502 7.75487 5.85083H11.9093L11.9434 5.8502C12.1012 5.83826 12.6845 5.80117 13.5601 5.80117C14.4016 5.80117 15.2593 5.83574 16.1056 5.90427L16.1893 5.91055C19.4305 6.17836 23.8718 7.06852 26.6158 9.7824L26.651 9.81635C26.6654 9.8308 26.6803 9.84463 26.6935 9.85972L28 11.2258L27.5171 9.3568ZM27.9355 16.1091L27.9319 16.1657C27.1077 23.4656 22.1989 28 15.1218 28H5.38806V14.1792H5.88055C8.73028 14.1792 11.0487 16.6145 11.0487 19.6075V22.0542H15.3597C17.4827 22.0542 19.2709 21.3219 20.5308 19.9363C21.8134 18.5263 22.4906 16.4876 22.4906 14.0421V13.9579C22.4906 12.0644 22.0943 10.4318 21.312 9.10409L20.5816 7.86502L21.8923 8.34279C23.5186 8.93561 24.8383 9.72456 25.8131 10.6895C27.238 12.099 27.9522 13.9227 27.9355 16.1091Z" fill="url(#paint0_linear_1256_19798)"/>
    <path d="M47.2926 21H43.1676V9.36364H47.3267C48.4972 9.36364 49.5047 9.59659 50.3494 10.0625C51.1941 10.5246 51.8438 11.1894 52.2983 12.0568C52.7566 12.9242 52.9858 13.9621 52.9858 15.1705C52.9858 16.3826 52.7566 17.4242 52.2983 18.2955C51.8438 19.1667 51.1903 19.8352 50.3381 20.3011C49.4896 20.767 48.4744 21 47.2926 21ZM45.6278 18.892H47.1903C47.9176 18.892 48.5294 18.7633 49.0256 18.5057C49.5256 18.2443 49.9006 17.8409 50.1506 17.2955C50.4044 16.7462 50.5312 16.0379 50.5312 15.1705C50.5312 14.3106 50.4044 13.608 50.1506 13.0625C49.9006 12.517 49.5275 12.1155 49.0312 11.858C48.535 11.6004 47.9233 11.4716 47.196 11.4716H45.6278V18.892ZM56.7912 9.36364V10.5909C56.7912 10.9394 56.723 11.2955 56.5866 11.6591C56.4541 12.0189 56.276 12.3598 56.0526 12.6818C55.8291 13 55.5848 13.2708 55.3196 13.4943L54.2514 12.8636C54.4408 12.5644 54.6075 12.233 54.7514 11.8693C54.8991 11.5057 54.973 11.0833 54.973 10.6023V9.36364H56.7912ZM69.142 15.1818C69.142 16.4508 68.9015 17.5303 68.4205 18.4205C67.9432 19.3106 67.2917 19.9905 66.4659 20.4602C65.6439 20.9261 64.7197 21.1591 63.6932 21.1591C62.6591 21.1591 61.7311 20.9242 60.9091 20.4545C60.0871 19.9848 59.4375 19.3049 58.9602 18.4148C58.483 17.5246 58.2443 16.447 58.2443 15.1818C58.2443 13.9129 58.483 12.8333 58.9602 11.9432C59.4375 11.053 60.0871 10.375 60.9091 9.90909C61.7311 9.43939 62.6591 9.20455 63.6932 9.20455C64.7197 9.20455 65.6439 9.43939 66.4659 9.90909C67.2917 10.375 67.9432 11.053 68.4205 11.9432C68.9015 12.8333 69.142 13.9129 69.142 15.1818ZM66.6477 15.1818C66.6477 14.3598 66.5246 13.6667 66.2784 13.1023C66.036 12.5379 65.6932 12.1098 65.25 11.8182C64.8068 11.5265 64.2879 11.3807 63.6932 11.3807C63.0985 11.3807 62.5795 11.5265 62.1364 11.8182C61.6932 12.1098 61.3485 12.5379 61.1023 13.1023C60.8598 13.6667 60.7386 14.3598 60.7386 15.1818C60.7386 16.0038 60.8598 16.697 61.1023 17.2614C61.3485 17.8258 61.6932 18.2538 62.1364 18.5455C62.5795 18.8371 63.0985 18.983 63.6932 18.983C64.2879 18.983 64.8068 18.8371 65.25 18.5455C65.6932 18.2538 66.036 17.8258 66.2784 17.2614C66.5246 16.697 66.6477 16.0038 66.6477 15.1818ZM70.919 21V12.2727H73.2656V13.7955H73.3565C73.5156 13.2538 73.7827 12.8447 74.1577 12.5682C74.5327 12.2879 74.9645 12.1477 75.4531 12.1477C75.5743 12.1477 75.705 12.1553 75.8452 12.1705C75.9853 12.1856 76.1084 12.2064 76.2145 12.233V14.3807C76.1009 14.3466 75.9437 14.3163 75.7429 14.2898C75.5421 14.2633 75.3584 14.25 75.1918 14.25C74.8357 14.25 74.5175 14.3277 74.2372 14.483C73.9607 14.6345 73.741 14.8466 73.5781 15.1193C73.419 15.392 73.3395 15.7064 73.3395 16.0625V21H70.919ZM77.4659 24.2727V12.2727H79.8523V13.7386H79.9602C80.0663 13.5038 80.2197 13.2652 80.4205 13.0227C80.625 12.7765 80.8902 12.572 81.2159 12.4091C81.5455 12.2424 81.9545 12.1591 82.4432 12.1591C83.0795 12.1591 83.6667 12.3258 84.2045 12.6591C84.7424 12.9886 85.1723 13.4867 85.4943 14.1534C85.8163 14.8163 85.9773 15.6477 85.9773 16.6477C85.9773 17.6212 85.8201 18.4432 85.5057 19.1136C85.1951 19.7803 84.7708 20.286 84.233 20.6307C83.6989 20.9716 83.1004 21.142 82.4375 21.142C81.9678 21.142 81.5682 21.0644 81.2386 20.9091C80.9129 20.7538 80.6458 20.5587 80.4375 20.3239C80.2292 20.0852 80.0701 19.8447 79.9602 19.6023H79.8864V24.2727H77.4659ZM79.8352 16.6364C79.8352 17.1553 79.9072 17.608 80.0511 17.9943C80.1951 18.3807 80.4034 18.6818 80.6761 18.8977C80.9489 19.1098 81.2803 19.2159 81.6705 19.2159C82.0644 19.2159 82.3977 19.108 82.6705 18.892C82.9432 18.6723 83.1496 18.3693 83.2898 17.983C83.4337 17.5928 83.5057 17.1439 83.5057 16.6364C83.5057 16.1326 83.4356 15.6894 83.2955 15.3068C83.1553 14.9242 82.9489 14.625 82.6761 14.4091C82.4034 14.1932 82.0682 14.0852 81.6705 14.0852C81.2765 14.0852 80.9432 14.1894 80.6705 14.3977C80.4015 14.6061 80.1951 14.9015 80.0511 15.2841C79.9072 15.6667 79.8352 16.1174 79.8352 16.6364ZM90.0114 15.9545V21H87.5909V9.36364H89.9432V13.8125H90.0455C90.2424 13.2973 90.5606 12.8939 91 12.6023C91.4394 12.3068 91.9905 12.1591 92.6534 12.1591C93.2595 12.1591 93.7879 12.2917 94.2386 12.5568C94.6932 12.8182 95.0455 13.1951 95.2955 13.6875C95.5492 14.1761 95.6742 14.7614 95.6705 15.4432V21H93.25V15.875C93.2538 15.3371 93.1174 14.9186 92.8409 14.6193C92.5682 14.3201 92.1856 14.1705 91.6932 14.1705C91.3636 14.1705 91.072 14.2405 90.8182 14.3807C90.5682 14.5208 90.3712 14.7254 90.2273 14.9943C90.0871 15.2595 90.0152 15.5795 90.0114 15.9545ZM100.064 21.1648C99.5071 21.1648 99.0109 21.0682 98.5753 20.875C98.1397 20.678 97.795 20.3883 97.5412 20.0057C97.2912 19.6193 97.1662 19.1383 97.1662 18.5625C97.1662 18.0777 97.2552 17.6705 97.4332 17.3409C97.6113 17.0114 97.8537 16.7462 98.1605 16.5455C98.4673 16.3447 98.8158 16.1932 99.206 16.0909C99.5999 15.9886 100.013 15.9167 100.445 15.875C100.952 15.822 101.361 15.7727 101.672 15.7273C101.982 15.678 102.208 15.6061 102.348 15.5114C102.488 15.4167 102.558 15.2765 102.558 15.0909V15.0568C102.558 14.697 102.445 14.4186 102.217 14.2216C101.994 14.0246 101.676 13.9261 101.263 13.9261C100.827 13.9261 100.481 14.0227 100.223 14.2159C99.9654 14.4053 99.795 14.6439 99.7116 14.9318L97.473 14.75C97.5866 14.2197 97.8101 13.7614 98.1435 13.375C98.4768 12.9848 98.9067 12.6856 99.4332 12.4773C99.9635 12.2652 100.577 12.1591 101.274 12.1591C101.759 12.1591 102.223 12.2159 102.666 12.3295C103.113 12.4432 103.509 12.6193 103.854 12.858C104.202 13.0966 104.477 13.4034 104.678 13.7784C104.878 14.1496 104.979 14.5947 104.979 15.1136V21H102.683V19.7898H102.615C102.475 20.0625 102.287 20.303 102.053 20.5114C101.818 20.7159 101.536 20.8769 101.206 20.9943C100.876 21.108 100.496 21.1648 100.064 21.1648ZM100.757 19.4943C101.113 19.4943 101.428 19.4242 101.7 19.2841C101.973 19.1402 102.187 18.947 102.342 18.7045C102.498 18.4621 102.575 18.1875 102.575 17.8807V16.9545C102.5 17.0038 102.395 17.0492 102.263 17.0909C102.134 17.1288 101.988 17.1648 101.825 17.1989C101.662 17.2292 101.5 17.2576 101.337 17.2841C101.174 17.3068 101.026 17.3277 100.893 17.3466C100.609 17.3883 100.361 17.4545 100.149 17.5455C99.937 17.6364 99.7723 17.7595 99.6548 17.9148C99.5374 18.0663 99.4787 18.2557 99.4787 18.483C99.4787 18.8125 99.598 19.0644 99.8366 19.2386C100.079 19.4091 100.386 19.4943 100.757 19.4943ZM109.277 15.9545V21H106.857V12.2727H109.163V13.8125H109.266C109.459 13.3049 109.783 12.9034 110.237 12.608C110.692 12.3087 111.243 12.1591 111.891 12.1591C112.497 12.1591 113.025 12.2917 113.476 12.5568C113.927 12.822 114.277 13.2008 114.527 13.6932C114.777 14.1818 114.902 14.7652 114.902 15.4432V21H112.482V15.875C112.485 15.3409 112.349 14.9242 112.072 14.625C111.796 14.322 111.415 14.1705 110.93 14.1705C110.605 14.1705 110.317 14.2405 110.067 14.3807C109.821 14.5208 109.627 14.7254 109.487 14.9943C109.351 15.2595 109.281 15.5795 109.277 15.9545Z" fill="#3B82F6"/>
    <defs>
    <linearGradient id="paint0_linear_1256_19798" x1="14" y1="0" x2="14" y2="28" gradientUnits="userSpaceOnUse">
    <stop stop-color="#3B82F6"/>
    <stop offset="1" stop-color="#7DD3FC"/>
    </linearGradient>
    </defs>
    </svg>
    